<svg xmlns="http://www.w3.org/2000/svg" width="93" height="93" viewBox="0 0 93 93">
  <g id="Group_14926" data-name="Group 14926" transform="translate(-0.23 0)">
    <circle id="Ellipse_1" data-name="Ellipse 1" cx="46.5" cy="46.5" r="46.5" transform="translate(0.23 0)" fill="#202022"/>
    <g id="cashback-cash-payment-svgrepo-com" transform="translate(25.605 23.776)">
      <g id="Group_14930" data-name="Group 14930" transform="translate(1.524 25.91)">
        <path id="Path_104" data-name="Path 104" d="M229.645,199.849A3.048,3.048,0,0,0,226.6,196.8h-3.05a3.048,3.048,0,0,0-3.047,3.049v12.192a3.048,3.048,0,0,0,3.047,3.049h3.05a3.048,3.048,0,0,0,3.047-3.049Z" transform="translate(-220.5 -196.8)" fill="none" fill-rule="evenodd"/>
      </g>
      <g id="Group_14931" data-name="Group 14931" transform="translate(10.669 26.065)">
        <path id="Path_105" data-name="Path 105" d="M153,166.519a3.049,3.049,0,0,1,3.048-3.048h7.621a3.048,3.048,0,1,1,0,6.1h6.359a3.049,3.049,0,0,0,2.155-.893l5.2-5.2c3.617-3.617,9.469.415,3.419,6.467,0,0-4.991,5.479-7.084,7.779a3.049,3.049,0,0,1-2.254,1H156.048A3.049,3.049,0,0,1,153,175.664Z" transform="translate(-153 -162.102)" fill="none" fill-rule="evenodd"/>
      </g>
      <g id="Group_14932" data-name="Group 14932" transform="translate(7.62 1.524)">
        <path id="Path_106" data-name="Path 106" d="M32.79,37.785a3.048,3.048,0,0,0-3.048-3.049H5.356a3.048,3.048,0,0,0-3.048,3.049V49.978a3.048,3.048,0,0,0,3.048,3.049H29.742a3.048,3.048,0,0,0,3.048-3.049Z" transform="translate(-2.308 -34.737)" fill="none" fill-rule="evenodd"/>
      </g>
      <path id="Path_107" data-name="Path 107" d="M109.475,188.613a4.577,4.577,0,0,0,2.242.587h15.418a4.571,4.571,0,0,0,3.381-1.494l7.061-7.755c3-3.012,3.393-5.715,2.791-7.476-1.043-3.045-5.273-4.236-8.39-1.119l-5.2,5.2a1.523,1.523,0,0,1-1.078.447h-1.987a5.453,5.453,0,0,0,.2-1.524c0-4.565-4.559-4.572-4.571-4.572h-7.622a4.577,4.577,0,0,0-2.242.587,4.57,4.57,0,0,0-3.855-2.111h-3.048A4.572,4.572,0,0,0,98,173.958v12.193a4.572,4.572,0,0,0,4.572,4.572h3.048A4.57,4.57,0,0,0,109.475,188.613Zm-2.33-14.654v12.193a1.525,1.525,0,0,1-1.524,1.524h-3.048a1.525,1.525,0,0,1-1.524-1.524V173.958a1.525,1.525,0,0,1,1.524-1.524h3.048A1.525,1.525,0,0,1,107.145,173.958Zm3.048,1.524v9.145a1.525,1.525,0,0,0,1.524,1.524h15.418a1.527,1.527,0,0,0,1.128-.5l7.107-7.805.026-.024c1.823-1.824,2.452-3.3,2.088-4.362-.413-1.206-2.117-1.183-3.352.05l-5.2,5.2a4.572,4.572,0,0,1-3.233,1.34H114.765a1.524,1.524,0,0,1,0-3.048h4.572a1.524,1.524,0,1,0,0-3.048h-7.621a1.525,1.525,0,0,0-1.524,1.524Zm27.434-13.717V149.572A4.574,4.574,0,0,0,133.055,145H108.669a4.574,4.574,0,0,0-4.572,4.572v12.193a4.574,4.574,0,0,0,4.572,4.572h24.386a4.574,4.574,0,0,0,4.572-4.572Zm-3.048-12.193v12.193a1.525,1.525,0,0,1-1.524,1.524H108.669a1.525,1.525,0,0,1-1.524-1.524V149.572a1.525,1.525,0,0,1,1.524-1.524h24.386a1.525,1.525,0,0,1,1.524,1.524Zm-4.572,12.193h1.524a1.524,1.524,0,1,0,0-3.048h-1.524a1.524,1.524,0,1,0,0,3.048ZM120.862,151.1a4.572,4.572,0,1,0,4.572,4.572A4.574,4.574,0,0,0,120.862,151.1Zm0,3.048a1.524,1.524,0,1,1-1.524,1.524A1.525,1.525,0,0,1,120.862,154.145Zm-10.669-1.524h1.524a1.524,1.524,0,1,0,0-3.048h-1.524a1.524,1.524,0,0,0,0,3.048Z" transform="translate(-98 -145)" fill="#fff" fill-rule="evenodd"/>
    </g>
  </g>
</svg>
