<svg xmlns="http://www.w3.org/2000/svg" width="25.332" height="25.367" viewBox="0 0 25.332 25.367">
  <g id="call" transform="translate(-1.25 -1.25)">
    <g id="call-2" data-name="call" transform="translate(1.25 1.25)">
      <path id="vector_Stroke_" data-name="vector (Stroke)" d="M6.371,3.02a2.579,2.579,0,0,0-1.833.855l-.007.007-.007.006A4.547,4.547,0,0,0,3.383,5.538l0,0A5.219,5.219,0,0,0,3.02,7.492,9.058,9.058,0,0,0,3.8,11a20.156,20.156,0,0,0,2.214,3.849,32.638,32.638,0,0,0,3.2,3.751A33.028,33.028,0,0,0,12.98,21.82a19.835,19.835,0,0,0,3.884,2.237,8.954,8.954,0,0,0,3.5.791,5.04,5.04,0,0,0,1.96-.38l0,0a4.187,4.187,0,0,0,1.182-.741,5.308,5.308,0,0,0,.413-.406l.372-.47a4.051,4.051,0,0,0,.305-.538,2.118,2.118,0,0,0,.21-.908,1.525,1.525,0,0,0-.119-.576.921.921,0,0,0-.337-.372l-.009-.006-3.9-2.767a3.671,3.671,0,0,0-.656-.368,1,1,0,0,0-.385-.088.691.691,0,0,0-.378.119l-.025.015-.026.013a2.777,2.777,0,0,0-.633.5l0,0-.9.883a1.532,1.532,0,0,1-1.107.457,1.7,1.7,0,0,1-.606-.1l-.019-.007L15.7,19.1c-.054-.023-.1-.046-.135-.061l-.057-.025L15.461,19l-.042-.022a9.894,9.894,0,0,1-1.68-1.192h0c-.648-.55-1.279-1.145-1.923-1.777L11.809,16l-.006-.006c-.629-.641-1.208-1.281-1.748-1.9l-.006-.007a10.617,10.617,0,0,1-1.2-1.658l-.038-.069-.025-.074s0-.008-.018-.045l0-.01c-.015-.035-.038-.089-.061-.151l-.018-.047-.012-.049a1.954,1.954,0,0,1-.062-.486,1.515,1.515,0,0,1,.441-1.09l.9-.933.006-.006a3.145,3.145,0,0,0,.516-.647L10.48,8.8l.007-.012a.721.721,0,0,0,.119-.378,1,1,0,0,0-.094-.371l-.006-.013a3.162,3.162,0,0,0-.371-.644l0-.005L7.389,3.512a1.039,1.039,0,0,0-.434-.361l-.012-.006A1.333,1.333,0,0,0,6.371,3.02ZM3.3,2.607A4.334,4.334,0,0,1,6.371,1.25a3.1,3.1,0,0,1,1.333.3A2.807,2.807,0,0,1,8.841,2.5l2.733,3.852a4.92,4.92,0,0,1,.568,1,2.739,2.739,0,0,1,.234,1.061A2.481,2.481,0,0,1,12.007,9.7a4.894,4.894,0,0,1-.792,1.01l-.813.845c.008.019.019.046.031.076a9.432,9.432,0,0,0,.963,1.306c.519.6,1.07,1.208,1.664,1.814.628.616,1.222,1.175,1.822,1.685a8.439,8.439,0,0,0,1.331.961l.069.031.814-.8a4.53,4.53,0,0,1,1.038-.8,2.447,2.447,0,0,1,1.273-.362,2.765,2.765,0,0,1,1.055.219,5.442,5.442,0,0,1,.988.547l.007.005L25.368,19a2.671,2.671,0,0,1,.951,1.123l.006.014.006.014a3.3,3.3,0,0,1,.252,1.249,3.889,3.889,0,0,1-.38,1.664,5.75,5.75,0,0,1-.947,1.42,7.114,7.114,0,0,1-.577.569A5.952,5.952,0,0,1,23,26.1a6.809,6.809,0,0,1-2.639.515,10.712,10.712,0,0,1-4.193-.932,21.6,21.6,0,0,1-4.233-2.435h0A34.8,34.8,0,0,1,7.966,19.86l-.006-.006a34.4,34.4,0,0,1-3.378-3.96l0,0A21.916,21.916,0,0,1,2.17,11.7v0a10.817,10.817,0,0,1-.919-4.2,6.988,6.988,0,0,1,.487-2.6A6.313,6.313,0,0,1,3.3,2.607Z" transform="translate(-1.25 -1.25)" fill="#fff" fill-rule="evenodd"/>
      <path id="vector_Stroke__2" data-name="vector (Stroke)_2" d="M6.371,3.02a2.579,2.579,0,0,0-1.833.855l-.007.007-.007.006A4.547,4.547,0,0,0,3.383,5.538l0,0A5.219,5.219,0,0,0,3.02,7.492,9.058,9.058,0,0,0,3.8,11a20.156,20.156,0,0,0,2.214,3.849,32.644,32.644,0,0,0,3.2,3.754L7.96,19.854a34.406,34.406,0,0,1-3.378-3.96l0,0A21.916,21.916,0,0,1,2.17,11.7v0a10.817,10.817,0,0,1-.919-4.2,6.988,6.988,0,0,1,.487-2.6A6.313,6.313,0,0,1,3.3,2.607,4.334,4.334,0,0,1,6.371,1.25a3.1,3.1,0,0,1,1.333.3A2.807,2.807,0,0,1,8.841,2.5l2.733,3.852a4.92,4.92,0,0,1,.568,1,2.739,2.739,0,0,1,.234,1.061A2.481,2.481,0,0,1,12.007,9.7a4.894,4.894,0,0,1-.792,1.01l-.813.845c.008.019.019.046.031.076a9.432,9.432,0,0,0,.963,1.306c.521.6,1.074,1.212,1.67,1.82L11.8,15.993c-.629-.641-1.208-1.281-1.748-1.9l-.006-.007a10.617,10.617,0,0,1-1.2-1.658l-.038-.069-.025-.074s0-.008-.018-.045l0-.01c-.015-.035-.038-.089-.061-.151l-.018-.047-.012-.049a1.954,1.954,0,0,1-.062-.486,1.515,1.515,0,0,1,.441-1.09l.9-.933.006-.006a3.145,3.145,0,0,0,.516-.647L10.48,8.8l.007-.012a.721.721,0,0,0,.119-.378,1,1,0,0,0-.094-.371l-.006-.013a3.162,3.162,0,0,0-.371-.644l0-.005L7.389,3.512a1.039,1.039,0,0,0-.434-.361l-.012-.006A1.333,1.333,0,0,0,6.371,3.02Z" transform="translate(-1.25 -1.25)" fill="#fff" fill-rule="evenodd"/>
    </g>
  </g>
</svg>
