<svg xmlns="http://www.w3.org/2000/svg" width="20.197" height="19.186" viewBox="0 0 20.197 19.186">
  <g id="Group_23522" data-name="Group 23522" transform="translate(0 0)">
    <path id="Path_8414" data-name="Path 8414" d="M-127.164,86.61l-.905.866-.192-.127a8.021,8.021,0,0,0-4.521-1.375A8.13,8.13,0,0,0-140.7,92.38a8.118,8.118,0,0,0,6.373,9.663,8.128,8.128,0,0,0,9.432-6.052,7.967,7.967,0,0,0-1.026-6.228c-.089-.144-.114-.248.017-.387.237-.25.452-.52.679-.785a9.323,9.323,0,0,1-1.041,12.217,9.37,9.37,0,0,1-13.118-.1,9.375,9.375,0,0,1-.144-13.1A9.336,9.336,0,0,1-127.164,86.61Z" transform="translate(142.121 -84.251)"/>
    <path id="Path_8415" data-name="Path 8415" d="M-20.249,74.7c-.424.461-.817.932-1.255,1.358a40.742,40.742,0,0,0-6.35,7.817c-.966,1.569-1.9,3.157-2.85,4.736-.04.067-.084.133-.127.2-.153.228-.362.237-.489-.009-.44-.856-.861-1.723-1.293-2.583s-.861-1.74-1.322-2.594a1.283,1.283,0,0,0-1.485-.727,1.389,1.389,0,0,1,.756-1.054,1.921,1.921,0,0,1,2.531.441,14.781,14.781,0,0,1,1.107,1.485c.063.086.108.185.181.311.119-.166.218-.3.315-.441a40.308,40.308,0,0,1,5.166-6.064,15.054,15.054,0,0,1,4.538-2.933A.5.5,0,0,1-20.249,74.7Z" transform="translate(40.445 -74.582)"/>
  </g>
</svg>
