<svg xmlns="http://www.w3.org/2000/svg" width="25.821" height="22.218" viewBox="0 0 25.821 22.218">
  <g id="email" transform="translate(-1.25 -2.75)">
    <g id="email-2" data-name="email" transform="translate(1.25 2.75)">
      <path id="vector_Stroke_" data-name="vector (Stroke)" d="M4.415,5.737A5.075,5.075,0,0,0,3.051,9.656v8.407a5.075,5.075,0,0,0,1.363,3.919,5.336,5.336,0,0,0,3.741,1.185h12.01a5.336,5.336,0,0,0,3.741-1.185,5.075,5.075,0,0,0,1.363-3.919V9.656a5.075,5.075,0,0,0-1.363-3.919,5.336,5.336,0,0,0-3.741-1.185H8.156A5.336,5.336,0,0,0,4.415,5.737ZM3.189,4.417A7.105,7.105,0,0,1,8.156,2.75h12.01a7.1,7.1,0,0,1,4.966,1.667,6.844,6.844,0,0,1,1.939,5.239v8.407A6.844,6.844,0,0,1,25.131,23.3a7.1,7.1,0,0,1-4.966,1.667H8.156A7.105,7.105,0,0,1,3.189,23.3,6.844,6.844,0,0,1,1.25,18.062V9.656A6.844,6.844,0,0,1,3.189,4.417Z" transform="translate(-1.25 -2.75)" fill="#fff" fill-rule="evenodd"/>
      <path id="vector_Stroke__2" data-name="vector (Stroke)_2" d="M22.354,7.369a.9.9,0,0,1-.162,1.263L15.531,13.78a3.3,3.3,0,0,1-4.039,0L4.83,8.632a.9.9,0,1,1,1.1-1.425l6.662,5.148a1.5,1.5,0,0,0,1.836,0l6.662-5.148A.9.9,0,0,1,22.354,7.369Z" transform="translate(-0.601 -1.892)" fill="#fff" fill-rule="evenodd"/>
    </g>
  </g>
</svg>
