<svg xmlns="http://www.w3.org/2000/svg" width="171.994" height="44.805" viewBox="0 0 171.994 44.805">
  <g id="Group_23333" data-name="Group 23333" transform="translate(-35.198 -11.953)">
    <g id="logo-google-playstore-svgrepo-com" transform="translate(-12.802 -20.044)">
      <path id="Path_8293" data-name="Path 8293" d="M48,55.6v39.3a.433.433,0,0,0,.737.307L69.2,75.258,48.737,55.3A.433.433,0,0,0,48,55.6Z" transform="translate(0 -20.858)" fill="#151515"/>
      <path id="Path_8294" data-name="Path 8294" d="M109,46.2,83.341,32.061l-.016-.009a.437.437,0,0,0-.5.706L102.94,51.992Z" transform="translate(-31.219 0)" fill="#151515"/>
      <path id="Path_8295" data-name="Path 8295" d="M82.835,299.286a.437.437,0,0,0,.5.706l.016-.009,25.658-14.137-6.062-5.8Z" transform="translate(-31.226 -223.245)" fill="#151515"/>
      <path id="Path_8296" data-name="Path 8296" d="M324.263,195.486,317.1,191.54l-6.738,6.447,6.738,6.444,7.166-3.943A2.869,2.869,0,0,0,324.263,195.486Z" transform="translate(-236.122 -143.587)" fill="#151515"/>
    </g>
    <path id="Union_5" data-name="Union 5" d="M42.731,32.49l2.141-.89a3.094,3.094,0,0,0,2.819,1.991c1.842,0,2.987-1.145,2.987-3.284V29.5h-.084a3.816,3.816,0,0,1-2.946,1.271,5.6,5.6,0,0,1,0-11.19,3.877,3.877,0,0,1,2.946,1.251h.085v-.91h2.332V29.968c0,4.133-2.438,5.829-5.32,5.829A5.333,5.333,0,0,1,42.731,32.49ZM44.745,25.2a3.211,3.211,0,0,0,3.116,3.37,3.127,3.127,0,0,0,2.987-3.37,3.153,3.153,0,0,0-2.987-3.412A3.236,3.236,0,0,0,44.745,25.2ZM102.21,35.42l2.5-5.544-4.379-9.964h2.644l2.92,7.13h.085l2.814-7.13h2.729L104.77,35.42ZM58.35,25.177a5.318,5.318,0,0,1,5.278-5.595,5.2,5.2,0,0,1,4.789,3.561l.254.634L61.19,26.871a2.846,2.846,0,0,0,2.712,1.7,3.2,3.2,0,0,0,2.757-1.547l1.908,1.272a5.572,5.572,0,0,1-4.664,2.48A5.475,5.475,0,0,1,58.35,25.177Zm2.437-.169,5-2.077a2.168,2.168,0,0,0-2.077-1.186A3.069,3.069,0,0,0,60.787,25.008Zm-30.762.169a5.616,5.616,0,1,1,5.615,5.595A5.515,5.515,0,0,1,30.026,25.177Zm2.459,0a3.165,3.165,0,1,0,6.314,0,3.165,3.165,0,1,0-6.314,0Zm-14.711,0a5.616,5.616,0,1,1,5.615,5.595A5.515,5.515,0,0,1,17.773,25.177Zm2.459,0a3.165,3.165,0,1,0,6.314,0,3.165,3.165,0,1,0-6.314,0ZM0,22.082a8.81,8.81,0,0,1,8.817-8.688,8.276,8.276,0,0,1,5.955,2.394L13.1,17.463a6.051,6.051,0,0,0-4.28-1.7,6.316,6.316,0,0,0,0,12.631A5.811,5.811,0,0,0,13.2,26.66,4.946,4.946,0,0,0,14.5,23.673H8.817V21.3h7.989a7.736,7.736,0,0,1,.128,1.482,7.846,7.846,0,0,1-2.057,5.553,7.941,7.941,0,0,1-6.06,2.438A8.81,8.81,0,0,1,0,22.082Zm90.489,5.044c0-2.411,2.391-3.7,4.74-3.7a5.423,5.423,0,0,1,2.559.634v-.17a2.363,2.363,0,0,0-2.581-2.116,2.327,2.327,0,0,0-2.242,1.206l-2.179-.909a4.608,4.608,0,0,1,4.379-2.517c2.813,0,4.994,1.628,4.992,4.545V30.4h-2.37v-1.27H97.7a3.461,3.461,0,0,1-3.131,1.609A3.8,3.8,0,0,1,90.489,27.126Zm2.455.042c0,.995,1.123,1.4,1.924,1.4a2.975,2.975,0,0,0,2.92-2.6,4.372,4.372,0,0,0-2.241-.549C94.341,25.412,92.944,25.9,92.944,27.168Zm-6.262,3.265V13.989h2.454V30.433Zm-12.631,0V13.989h5.881A5.211,5.211,0,0,1,85.327,19.1a5.211,5.211,0,0,1-5.4,5.107H76.5v6.23ZM76.5,21.914H80a2.819,2.819,0,1,0,0-5.637H76.5Zm-21.8,8.518V13.989h2.458V30.433ZM37.054,7.051a4.038,4.038,0,0,1-1.163-2.927A4.038,4.038,0,0,1,37.054,1.2a4.083,4.083,0,0,1,5.781.005A4.034,4.034,0,0,1,44,4.124,4.042,4.042,0,0,1,42.84,7.051a4.1,4.1,0,0,1-5.787,0ZM37.8,6.39a3.038,3.038,0,0,0,4.288,0,3.092,3.092,0,0,0,.877-2.266,3.092,3.092,0,0,0-.877-2.266,3.038,3.038,0,0,0-4.288,0,3.1,3.1,0,0,0-.876,2.266A3.1,3.1,0,0,0,37.8,6.39ZM1.6,7.063a3.977,3.977,0,0,1-1.2-2.938A3.97,3.97,0,0,1,1.6,1.188,3.971,3.971,0,0,1,4.509,0a4.073,4.073,0,0,1,1.619.33,3.247,3.247,0,0,1,1.234.881l-.693.694A2.666,2.666,0,0,0,4.507.972,3.052,3.052,0,0,0,1.442,4.124,3.05,3.05,0,0,0,4.507,7.275a2.99,2.99,0,0,0,2.2-.881,2.483,2.483,0,0,0,.662-1.6H4.507V3.848H8.331a3.1,3.1,0,0,1,.057.6,3.559,3.559,0,0,1-.981,2.634,3.822,3.822,0,0,1-2.9,1.168A3.976,3.976,0,0,1,1.6,7.063ZM50.453,8.07,46.438,1.632H46.4l.043,1.521V8.07H45.427V.178h1.234L50.5,6.317h.043L50.5,4.8V.178h1.014V8.07Zm-21.1,0V1.147h-2.2V.178h5.424v.969h-2.2V8.07Zm-4.5,0V.178h1.015V8.07Zm-7.142,0V1.147h-2.2V.178h5.423v.969h-2.2V8.07Zm-7.87,0V.178h4.608v.969H10.858v2.5H14.1V4.6H10.858V7.1h3.594V8.07Z" transform="translate(95.673 16.457)" fill="#151515"/>
  </g>
</svg>
