<svg xmlns="http://www.w3.org/2000/svg" xmlns:xlink="http://www.w3.org/1999/xlink" width="30.156" height="27.381" viewBox="0 0 30.156 27.381">
  <defs>
    <clipPath id="clip-path">
      <rect id="Rectangle_4356" data-name="Rectangle 4356" width="30.156" height="27.381" fill="#fff"/>
    </clipPath>
  </defs>
  <g id="Group_14741" data-name="Group 14741" opacity="0.5" clip-path="url(#clip-path)">
    <path id="Path_51260" data-name="Path 51260" d="M14.006,13a6.195,6.195,0,0,0,4.543,1.893l.126,2.654a9.181,9.181,0,0,1-6.435-2.654l-.883-.883-2.9,3.028,2.776,2.654V27.26H8.706V20.693L7.065,19.179v2.776l-5.3,5.424L0,25.614l4.543-4.542L3.028,16.656a1.686,1.686,0,0,1,.757-1.893L7.949,10.6a2.2,2.2,0,0,1,1.767-.883,2.267,2.267,0,0,1,1.385.379L14,13m16.153,1.639H27.632v-4.29l-2.271-.883L26.5,15.016l1.263,6.566,1.136,5.552H26.241l-2.267-10.1L21.32,19.558v7.571H18.8V17.666l2.654-2.524L20.7,11.356a10.526,10.526,0,0,1-2.654,2.019,5.3,5.3,0,0,1-3.155-1.514,5.956,5.956,0,0,0,4.29-2.9L20.439,6.94A2.343,2.343,0,0,1,23.72,5.93l6.436,2.777v5.931m-15.9-9.464a2.531,2.531,0,1,1-1.783.741A2.524,2.524,0,0,1,14.258,5.174ZM20.693,0A2.531,2.531,0,1,1,18.91.741,2.524,2.524,0,0,1,20.693,0Z" fill="#fff"/>
  </g>
</svg>
