<svg xmlns="http://www.w3.org/2000/svg" width="41.905" height="41.283" viewBox="0 0 41.905 41.283">
  <g id="Group_14692" data-name="Group 14692" transform="matrix(0.819, -0.574, 0.574, 0.819, 0, 16.398)" opacity="0.49">
    <path id="Path_51077" data-name="Path 51077" d="M815.329,1438.169a24.2,24.2,0,0,1-28.582,6.03,16.825,16.825,0,0,1,1.018-4.463,15.417,15.417,0,0,1,4.229-5.795,13.691,13.691,0,0,1,6.186-3.133A15.1,15.1,0,0,1,815.329,1438.169Z" transform="translate(-786.741 -1430.318)" fill="#fff"/>
    <path id="Path_51078" data-name="Path 51078" d="M787.98,1475.243a27.147,27.147,0,0,0,14.33,5.09,26.61,26.61,0,0,0,14.721-3.445c.078.078,0,.078,0,.234-.313.7-.627,1.488-1.018,2.193s-.861,1.331-1.331,2.036a15.741,15.741,0,0,1-4.228,3.68,15.379,15.379,0,0,1-22.473-9.318.5.5,0,0,1,0-.47Z" transform="translate(-787.425 -1456.352)" fill="#fff"/>
    <path id="Path_51079" data-name="Path 51079" d="M805.728,1464.021h2.819c.939-.078,1.879-.235,2.74-.313.94-.235,1.879-.392,2.741-.626a15.372,15.372,0,0,0,2.662-.94,14.662,14.662,0,0,0,2.506-1.175,20.217,20.217,0,0,0,2.427-1.488,15.115,15.115,0,0,0,2.193-1.723c.7-.626,1.331-1.253,2.114-1.879a11.747,11.747,0,0,1,.548,2.115l-.313.313a25.3,25.3,0,0,1-10.571,5.716,25.757,25.757,0,0,1-12.451,0Z" transform="translate(-796.246 -1445.129)" fill="#fff"/>
    <path id="Path_51080" data-name="Path 51080" d="M813.572,1470.57a26.6,26.6,0,0,0,18.48-6.029c.235-.078.313-.314.548-.392.078,0,.078-.078.235-.078a12.378,12.378,0,0,1,0,2.427,8.363,8.363,0,0,0-.861.627,23.666,23.666,0,0,1-18.01,3.6Z" transform="translate(-802.289 -1449.877)" fill="#fff"/>
  </g>
</svg>
