<svg xmlns="http://www.w3.org/2000/svg" width="30.223" height="30.223" viewBox="0 0 30.223 30.223">
  <path id="sport" d="M15.112,0A15.112,15.112,0,1,0,30.223,15.112,15.112,15.112,0,0,0,15.112,0Zm.539,4.357,5.253-2.1a14.136,14.136,0,0,1,1.726.93l.014.009A14.185,14.185,0,0,1,24.2,4.336l.042.037q.331.282.644.583c.026.026.054.05.08.077q.328.32.635.66l.05.059c.18.2.353.41.52.622.04.05.081.1.12.151.182.236.358.475.524.723L25.768,11.7l-5.153,1.718L15.652,9.446ZM3.932,6.528l.119-.151q.249-.315.514-.616L4.621,5.7q.305-.341.633-.66c.025-.025.05-.05.076-.073q.31-.3.638-.58l.05-.042a14.24,14.24,0,0,1,1.54-1.133l.02-.013a14.15,14.15,0,0,1,1.716-.929l5.278,2.09V9.444L9.609,13.415,4.456,11.7,3.409,7.249c.168-.247.342-.486.523-.721ZM3.325,22.841Q3.1,22.5,2.9,22.151l-.033-.057q-.2-.35-.381-.711l0-.008a14.034,14.034,0,0,1-.663-1.562v0c-.09-.252-.171-.51-.247-.769l-.027-.1q-.1-.366-.188-.739c0-.024-.011-.047-.016-.072a14.02,14.02,0,0,1-.266-1.706l3.075-3.69,5.117,1.705,1.485,5.94-2.44,3.247Zm15.141,5.968c-.252.062-.51.116-.769.165l-.109.02c-.22.039-.443.073-.666.1l-.178.023c-.207.024-.416.042-.626.057l-.2.015c-.268.016-.538.026-.81.026q-.374,0-.743-.02c-.03,0-.058,0-.088-.007q-.329-.019-.655-.05l-.025,0a14.35,14.35,0,0,1-1.42-.227L9.2,24.243l2.4-3.2h7.019l2.441,3.224Zm10.42-10.675c-.005.024-.011.047-.016.072q-.084.373-.188.739l-.027.1c-.076.259-.157.517-.247.769v0a13.988,13.988,0,0,1-.663,1.562l0,.008q-.181.362-.381.711l-.033.057q-.2.353-.424.689l-4.97.784-2.457-3.244,1.484-5.938,5.117-1.705,3.075,3.69a13.987,13.987,0,0,1-.266,1.707Zm0,0" fill="#fff" opacity="0.5"/>
</svg>
