<svg xmlns="http://www.w3.org/2000/svg" width="71.609" height="71.608" viewBox="0 0 71.609 71.608">
  <path id="instagram-svgrepo-com_1_" data-name="instagram-svgrepo-com (1)" d="M148.165,136.134a11.94,11.94,0,1,0,11.94,11.94A11.965,11.965,0,0,0,148.165,136.134Zm35.81,11.94c0-4.944.045-9.844-.233-14.779-.278-5.733-1.585-10.82-5.777-15.012s-9.279-5.5-15.012-5.777c-4.944-.278-9.844-.233-14.779-.233s-9.844-.045-14.779.233c-5.733.278-10.82,1.585-15.012,5.777s-5.5,9.279-5.777,15.012c-.278,4.944-.233,9.844-.233,14.779s-.045,9.844.233,14.779c.278,5.733,1.585,10.82,5.777,15.012s9.28,5.5,15.012,5.777c4.944.278,9.844.233,14.779.233s9.844.045,14.779-.233c5.732-.278,10.82-1.585,15.012-5.777s5.5-9.279,5.777-15.012c.287-4.935.233-9.835.233-14.779Zm-35.81,18.371a18.371,18.371,0,1,1,18.371-18.371A18.345,18.345,0,0,1,148.165,166.445Zm19.123-33.2a4.285,4.285,0,1,1,3.035-1.255A4.285,4.285,0,0,1,167.289,133.241Z" transform="translate(-112.37 -112.27)" fill="#fff"/>
</svg>
