<svg xmlns="http://www.w3.org/2000/svg" xmlns:xlink="http://www.w3.org/1999/xlink" width="60.584" height="60.568" viewBox="0 0 60.584 60.568">
  <defs>
    <radialGradient id="radial-gradient" cx="0.266" cy="1.077" r="0.991" gradientTransform="translate(-2.918 5.666) rotate(-90) scale(1 0.93)" gradientUnits="objectBoundingBox">
      <stop offset="0" stop-color="#fd5"/>
      <stop offset="0.1" stop-color="#fd5"/>
      <stop offset="0.5" stop-color="#ff543e"/>
      <stop offset="1" stop-color="#c837ab"/>
    </radialGradient>
    <radialGradient id="radial-gradient-2" cx="-0.168" cy="0.072" r="0.443" gradientTransform="matrix(0.196, 0.981, -4.042, 0.809, 15.634, -0.42)" gradientUnits="objectBoundingBox">
      <stop offset="0" stop-color="#3771c8"/>
      <stop offset="0.128" stop-color="#3771c8"/>
      <stop offset="1" stop-color="#60f" stop-opacity="0"/>
    </radialGradient>
  </defs>
  <g id="Instagram_logo_2016" transform="translate(-1.001 -1)">
    <path id="Path_51283" data-name="Path 51283" d="M30.3,0C17.652,0,13.953.013,13.234.073a15.029,15.029,0,0,0-5.97,1.5A12.092,12.092,0,0,0,3.784,4.121,13,13,0,0,0,.275,11.488C.07,12.9.011,13.194,0,20.429c0,2.412,0,5.586,0,9.843C0,42.908.013,46.6.073,47.321a15.215,15.215,0,0,0,1.444,5.852,12.761,12.761,0,0,0,8.271,6.756,21.492,21.492,0,0,0,4.4.582c.75.033,8.4.056,16.047.056s15.3-.009,16.033-.047a20.7,20.7,0,0,0,4.557-.6,12.683,12.683,0,0,0,8.271-6.77,14.965,14.965,0,0,0,1.428-5.739c.041-.522.058-8.842.058-17.151s-.019-16.616-.06-17.137a14.8,14.8,0,0,0-1.457-5.8,12.006,12.006,0,0,0-2.593-3.552A13.079,13.079,0,0,0,49.1.278C47.681.073,47.4.013,40.158,0Z" transform="translate(1.004 1)" fill="url(#radial-gradient)"/>
    <path id="Path_51284" data-name="Path 51284" d="M30.3,0C17.652,0,13.953.013,13.234.073a15.029,15.029,0,0,0-5.97,1.5A12.092,12.092,0,0,0,3.784,4.121,13,13,0,0,0,.275,11.488C.07,12.9.011,13.194,0,20.429c0,2.412,0,5.586,0,9.843C0,42.908.013,46.6.073,47.321a15.215,15.215,0,0,0,1.444,5.852,12.761,12.761,0,0,0,8.271,6.756,21.492,21.492,0,0,0,4.4.582c.75.033,8.4.056,16.047.056s15.3-.009,16.033-.047a20.7,20.7,0,0,0,4.557-.6,12.683,12.683,0,0,0,8.271-6.77,14.965,14.965,0,0,0,1.428-5.739c.041-.522.058-8.842.058-17.151s-.019-16.616-.06-17.137a14.8,14.8,0,0,0-1.457-5.8,12.006,12.006,0,0,0-2.593-3.552A13.079,13.079,0,0,0,49.1.278C47.681.073,47.4.013,40.158,0Z" transform="translate(1.004 1)" fill="url(#radial-gradient-2)"/>
    <path id="Path_51285" data-name="Path 51285" d="M40.367,18c-6.074,0-6.836.027-9.222.135a16.413,16.413,0,0,0-5.428,1.039,11.441,11.441,0,0,0-6.543,6.54,16.337,16.337,0,0,0-1.039,5.428C18.028,33.529,18,34.291,18,40.365s.027,6.834.135,9.22a16.437,16.437,0,0,0,1.039,5.428,11.445,11.445,0,0,0,6.54,6.543A16.427,16.427,0,0,0,31.143,62.6c2.386.109,3.147.135,9.221.135s6.834-.027,9.22-.135a16.436,16.436,0,0,0,5.431-1.039,11.459,11.459,0,0,0,6.54-6.543A16.578,16.578,0,0,0,62.6,49.586c.107-2.386.135-3.146.135-9.22s-.028-6.836-.135-9.222a16.57,16.57,0,0,0-1.039-5.428,11.443,11.443,0,0,0-6.542-6.541,16.464,16.464,0,0,0-5.433-1.039C47.2,18.027,46.436,18,40.36,18Zm-2.006,4.03h2.006c5.972,0,6.679.021,9.037.129a12.382,12.382,0,0,1,4.153.77A7.411,7.411,0,0,1,57.8,27.174a12.358,12.358,0,0,1,.77,4.152c.107,2.358.13,3.066.13,9.035s-.023,6.677-.13,9.035a12.37,12.37,0,0,1-.77,4.152,7.417,7.417,0,0,1-4.244,4.242,12.337,12.337,0,0,1-4.153.771c-2.358.107-3.066.13-9.037.13s-6.68-.023-9.037-.13a12.406,12.406,0,0,1-4.153-.771,7.41,7.41,0,0,1-4.246-4.243,12.358,12.358,0,0,1-.77-4.152c-.107-2.358-.129-3.066-.129-9.038s.021-6.677.129-9.035a12.382,12.382,0,0,1,.77-4.153,7.412,7.412,0,0,1,4.246-4.246,12.355,12.355,0,0,1,4.153-.771c2.063-.093,2.863-.121,7.031-.126Zm13.945,3.714a2.683,2.683,0,1,0,2.684,2.683,2.683,2.683,0,0,0-2.684-2.683ZM40.367,28.88A11.484,11.484,0,1,0,51.851,40.365,11.486,11.486,0,0,0,40.367,28.88Zm0,4.03a7.455,7.455,0,1,1-7.455,7.455A7.455,7.455,0,0,1,40.367,32.91Z" transform="translate(-9.079 -9.079)" fill="#fff"/>
  </g>
</svg>
