<svg xmlns="http://www.w3.org/2000/svg" width="50" height="50" viewBox="0 0 50 50">
  <g id="Group_23311" data-name="Group 23311" transform="translate(-191 -688)">
    <g id="Ellipse_861" data-name="Ellipse 861" transform="translate(191 688)" fill="#fff" stroke="#f0f0f0" stroke-width="1">
      <circle cx="25" cy="25" r="25" stroke="none"/>
      <circle cx="25" cy="25" r="24.5" fill="none"/>
    </g>
    <g id="style_doutone" data-name="style=doutone" transform="translate(204.25 700.75)">
      <g id="location">
        <path id="ellipse_Stroke_" data-name="ellipse (Stroke)" d="M12,7.75A1.75,1.75,0,1,0,13.75,9.5,1.75,1.75,0,0,0,12,7.75ZM8.75,9.5A3.25,3.25,0,1,1,12,12.75,3.25,3.25,0,0,1,8.75,9.5Z" fill="#bfbfbf" fill-rule="evenodd"/>
        <path id="vector_Stroke_" data-name="vector (Stroke)" d="M19.574,8.664C17.806.784,6.2.776,4.426,8.655a8.466,8.466,0,0,0,1.22,6.217,24.3,24.3,0,0,0,4.057,4.9h0l.284.277,0,0c.963.922,1.555,1.2,2.022,1.19s1.072-.3,2.041-1.242h0a25.635,25.635,0,0,0,4.2-4.961,8.539,8.539,0,0,0,1.318-6.376ZM8.946,21.131l-.055-.053h0l-.236-.231a25.741,25.741,0,0,1-4.3-5.22,9.955,9.955,0,0,1-1.387-7.3h0C5.092-1.116,18.92-1.1,21.037,8.336l-.732.164.732-.164a10.027,10.027,0,0,1-1.5,7.479A27.062,27.062,0,0,1,15.1,21.078a4.7,4.7,0,0,1-3.07,1.667A4.571,4.571,0,0,1,8.95,21.136Z" fill-rule="evenodd"/>
      </g>
    </g>
  </g>
</svg>
