<svg xmlns="http://www.w3.org/2000/svg" width="25.332" height="29.432" viewBox="0 0 25.332 29.432">
  <g id="map_pin" transform="translate(-2.75 -1.25)">
    <g id="location" transform="translate(2.75 1.25)">
      <path id="ellipse_Stroke_" data-name="ellipse (Stroke)" d="M13.2,8.3a2.4,2.4,0,1,0,2.4,2.4A2.4,2.4,0,0,0,13.2,8.3ZM8.75,10.7a4.45,4.45,0,1,1,4.45,4.45A4.45,4.45,0,0,1,8.75,10.7Z" transform="translate(-0.534 0.596)" fill="#fff" fill-rule="evenodd"/>
      <path id="vector_Stroke_" data-name="vector (Stroke)" d="M25.786,11.4C23.366.612,7.478.6,5.045,11.389A11.592,11.592,0,0,0,6.715,19.9a33.265,33.265,0,0,0,5.555,6.714h0l.389.379,0,0c1.318,1.262,2.13,1.637,2.769,1.63s1.467-.408,2.795-1.7l0,0a35.1,35.1,0,0,0,5.752-6.793,11.692,11.692,0,0,0,1.8-8.73ZM11.234,28.472l-.075-.072h0l-.324-.316a35.245,35.245,0,0,1-5.893-7.148,13.63,13.63,0,0,1-1.9-10h0C5.956-1.99,24.89-1.974,27.79,10.952l-1,.225,1-.225a13.729,13.729,0,0,1-2.05,10.24A37.054,37.054,0,0,1,19.659,28.4c-1.374,1.338-2.7,2.265-4.2,2.282s-2.841-.886-4.216-2.2Z" transform="translate(-2.75 -1.25)" fill="#fff" fill-rule="evenodd"/>
    </g>
  </g>
</svg>
