<svg xmlns="http://www.w3.org/2000/svg" width="98" height="98" viewBox="0 0 98 98">
  <g id="Group_23078" data-name="Group 23078" transform="translate(-131.154 -2870.154)">
    <circle id="Ellipse_30" data-name="Ellipse 30" cx="49" cy="49" r="49" transform="translate(131.154 2870.154)" fill="rgba(255,255,255,0.1)"/>
    <g id="medal-award-achievement-champion-competition-svgrepo-com" transform="translate(151.916 2890.916)">
      <path id="Path_8155" data-name="Path 8155" d="M46.144,41.18,27.628,9.109a1.855,1.855,0,0,0-2.537-.685L13.87,14.905a1.852,1.852,0,0,0-.685,2.537L31.7,49.513a1.852,1.852,0,0,0,1.611.926h0a1.852,1.852,0,0,0,1.592-.926l3.222-5.555h6.407a1.852,1.852,0,0,0,1.611-2.778Z" transform="translate(9.172 5.574)" fill="#fff"/>
      <path id="Path_8156" data-name="Path 8156" d="M33.519,14.9,22.3,8.421a1.944,1.944,0,0,0-1.407-.185,1.852,1.852,0,0,0-1.13.87L1.244,41.177a1.852,1.852,0,0,0,1.611,2.778H9.262l3.222,5.555a1.852,1.852,0,0,0,1.592.926h0a1.852,1.852,0,0,0,1.611-.926L34.2,17.439a1.852,1.852,0,0,0-.685-2.537Z" transform="translate(-0.996 5.577)" fill="#fff"/>
      <ellipse id="Ellipse_31" data-name="Ellipse 31" cx="21.962" cy="22.485" rx="21.962" ry="22.485" transform="translate(5.82 0)" fill="#151515"/>
      <path id="Path_8157" data-name="Path 8157" d="M34.929,14.66A1.852,1.852,0,0,0,33.448,13.4l-6.722-.981L23.634,6.29a1.852,1.852,0,0,0-3.333,0l-3,6.129-6.722.981a1.852,1.852,0,0,0-1.018,3.166l4.87,4.777-1.148,6.74a1.812,1.812,0,0,0,2.592,1.981l6.092-3.2,6,3.166a1.85,1.85,0,0,0,2.685-1.981L29.5,21.307l4.87-4.777A1.852,1.852,0,0,0,34.929,14.66Z" transform="translate(5.815 3.078)" fill="#fff"/>
    </g>
  </g>
</svg>
