<svg xmlns="http://www.w3.org/2000/svg" width="98" height="98" viewBox="0 0 98 98">
  <g id="Group_23078" data-name="Group 23078" transform="translate(-131.154 -2870.154)">
    <circle id="Ellipse_30" data-name="Ellipse 30" cx="49" cy="49" r="49" transform="translate(131.154 2870.154)" fill="rgba(255,255,255,0.1)"/>
    <g id="money-41" transform="translate(152.154 2755.097)">
      <path id="Path_8158" data-name="Path 8158" d="M40.894,145.065a1.473,1.473,0,0,0-1.856-.934l-28.756,9.48H18.74l16.071-5.3a5.239,5.239,0,0,0,5.249,2.674l.867,2.63h2.79l-2.823-8.552ZM.072,158.528l6.453,19.563v-8.453l-2.26-6.856a5.19,5.19,0,0,0,2.26-2.663v-3.37a3.131,3.131,0,0,1,.906-2.2l-6.42,2.116a1.482,1.482,0,0,0-.939,1.862Z" fill="#151515"/>
      <path id="Path_8159" data-name="Path 8159" d="M283.655,436.552A2.453,2.453,0,1,0,286.108,439,2.454,2.454,0,0,0,283.655,436.552Zm-26.3,0A2.453,2.453,0,1,0,259.81,439,2.455,2.455,0,0,0,257.357,436.552Zm13.154-6.652c-4.458,0-8.072,4.072-8.072,9.1s3.613,9.1,8.072,9.1,8.072-4.072,8.072-9.1S274.964,429.9,270.511,429.9Zm.735,13.193v1.365h-1.7v-1.243a7.835,7.835,0,0,1-2.635-.575l.475-1.845a6.642,6.642,0,0,0,2.619.586c.762,0,1.3-.188,1.3-.613s-.448-.668-1.552-.978c-1.624-.47-2.768-1.149-2.768-2.5,0-1.215.939-2.177,2.635-2.486v-1.243h1.685V434.7a6.5,6.5,0,0,1,2.265.425l-.475,1.779a5.877,5.877,0,0,0-2.249-.453c-.878,0-1.149.282-1.149.575,0,.337.508.586,1.757.978,1.878.564,2.563,1.32,2.563,2.541,0,1.238-.983,2.254-2.773,2.547Z" transform="translate(-240.821 -270.051)" fill="#fff"/>
      <path id="Path_8160" data-name="Path 8160" d="M179.547,373.746a2.917,2.917,0,0,1,.464-1.563H155.128a5.231,5.231,0,0,0-4.077-4.088V354.023a5.239,5.239,0,0,0,4.088-4.177h29.452a5.223,5.223,0,0,0,4.149,4.182v9.414h2.646V348.67a1.472,1.472,0,0,0-1.47-1.47H149.874a1.472,1.472,0,0,0-1.47,1.47v24.69a1.472,1.472,0,0,0,1.47,1.47h29.889A2.805,2.805,0,0,1,179.547,373.746Z" transform="translate(-140.205 -191.92)" fill="#fff"/>
      <path id="Path_8161" data-name="Path 8161" d="M736.855,673.08a1.29,1.29,0,1,1,0-2.58h12.828a1.29,1.29,0,0,1,0,2.58Zm-.558,3.691a1.293,1.293,0,1,1,0-2.586h12.828a1.293,1.293,0,1,1,0,2.586Zm.343,3.7a1.29,1.29,0,1,1,0-2.58h12.828a1.29,1.29,0,1,1,0,2.58Z" transform="translate(-694.397 -497.359)" fill="#151515"/>
    </g>
  </g>
</svg>
