<svg xmlns="http://www.w3.org/2000/svg" width="98" height="98" viewBox="0 0 98 98">
  <g id="Group_23078" data-name="Group 23078" transform="translate(-131.154 -2870.154)">
    <circle id="Ellipse_30" data-name="Ellipse 30" cx="49" cy="49" r="49" transform="translate(131.154 2870.154)" fill="rgba(255,255,255,0.1)"/>
    <g id="_24-hours-support-svgrepo-com" data-name="24-hours-support-svgrepo-com" transform="translate(152.154 2890.61)">
      <path id="Path_8162" data-name="Path 8162" d="M103.813,1.544A22.442,22.442,0,0,0,88.8,7.291a9.394,9.394,0,0,1,1.435,4.733v.01c.02.761.066,1.523.131,2.283A16.622,16.622,0,1,1,104.1,40.7c.825.689,1.677,1.347,2.555,1.964l0,0,0,0a9.406,9.406,0,0,1,2.851,3.212,22.534,22.534,0,0,0-5.7-44.335Z" transform="translate(-71.317 0)" fill="#fff"/>
      <path id="Path_8163" data-name="Path 8163" d="M31.942,77.856c-2.574-2.055-4.18-3.423-6.479-5.552a3.518,3.518,0,0,0-2.351-1.017,2.844,2.844,0,0,0-1.819.64L19.658,73.3a49.63,49.63,0,0,1-9.652-18l2.051-.6a3.212,3.212,0,0,0,1.994-3.682c-.481-3.509-.742-5.252-1.04-8.469a3.246,3.246,0,0,0-2.823-3.167c-.245-.024-.49-.036-.734-.036C3.606,39.35-1.486,46.129.4,54.423A58.71,58.71,0,0,0,15.074,81.794a13.817,13.817,0,0,0,9.9,4.535,8.829,8.829,0,0,0,8.039-4.369A3.239,3.239,0,0,0,31.942,77.856Z" transform="translate(0 -30.363)" fill="#151515"/>
      <path id="Path_8164" data-name="Path 8164" d="M114.448,84.654a18.136,18.136,0,0,0-3.115,3.473,7.084,7.084,0,0,0-.824,1.977,1.071,1.071,0,0,0,1.04,1.325h7.433a1.652,1.652,0,1,0,0-3.3h-3.357l.084-.1c.219-.247.756-.763,1.6-1.533a17.516,17.516,0,0,0,1.817-1.85,7.807,7.807,0,0,0,1.141-1.905,5.3,5.3,0,0,0,.37-1.962,4.1,4.1,0,0,0-1.319-3.092,5,5,0,0,0-3.558-1.235,5.49,5.49,0,0,0-3.421,1.054,3.953,3.953,0,0,0-1.263,1.74,1.708,1.708,0,0,0,1.421,2.322c.059.006.118.009.175.009a1.749,1.749,0,0,0,1.651-1.177,1.381,1.381,0,0,1,.3-.522,1.417,1.417,0,0,1,1.069-.393,1.432,1.432,0,0,1,1.067.372,1.5,1.5,0,0,1,.371,1.114,2.613,2.613,0,0,1-.493,1.44A17.915,17.915,0,0,1,114.448,84.654Z" transform="translate(-88.729 -60.16)" fill="#fff"/>
      <path id="Path_8165" data-name="Path 8165" d="M173.094,76.451h-1.242a1.07,1.07,0,0,0-.884.467l-5.742,8.406a1.465,1.465,0,0,0-.256.829v1.362a1.071,1.071,0,0,0,1.07,1.07h4.714v1.139a1.7,1.7,0,1,0,3.41,0V88.585h.17a1.584,1.584,0,0,0,0-3.168h-.17v-7.9A1.071,1.071,0,0,0,173.094,76.451Zm-2.339,8.966h-2.116l2.116-3.146Z" transform="translate(-132.493 -60.16)" fill="#fff"/>
    </g>
  </g>
</svg>
