<svg xmlns="http://www.w3.org/2000/svg" width="111" height="111" viewBox="0 0 111 111">
  <g id="play-square-svgrepo-com" transform="translate(-7.083 -7.083)">
    <path id="Path_8417" data-name="Path 8417" d="M22.37,3.5C27.409,2.385,33.521,2,40.8,2s13.39.385,18.429,1.5c5.083,1.13,9.307,3.058,12.557,6.308s5.178,7.474,6.308,12.557c1.12,5.039,1.5,11.152,1.5,18.429s-.385,13.39-1.5,18.429c-1.13,5.083-3.058,9.307-6.308,12.557s-7.474,5.178-12.557,6.308c-5.039,1.12-11.152,1.5-18.429,1.5s-13.39-.385-18.429-1.5c-5.083-1.13-9.308-3.058-12.557-6.308S4.634,64.311,3.5,59.228C2.385,54.189,2,48.076,2,40.8s.385-13.39,1.5-18.429c1.13-5.083,3.058-9.308,6.308-12.557S17.287,4.634,22.37,3.5Z" transform="translate(21.785 21.784)" fill="#fff" fill-rule="evenodd"/>
    <path id="Path_8416" data-name="Path 8416" d="M31.138,4.152C38.346,2.551,47.09,2,57.5,2s19.154.551,26.362,2.152c7.271,1.616,13.314,4.374,17.963,9.023s7.407,10.692,9.023,17.962C112.449,38.346,113,47.09,113,57.5s-.551,19.154-2.152,26.362c-1.616,7.271-4.375,13.314-9.023,17.963s-10.691,7.407-17.963,9.023C76.654,112.449,67.91,113,57.5,113s-19.154-.551-26.362-2.152c-7.271-1.616-13.314-4.375-17.962-9.023S5.768,91.133,4.152,83.862C2.551,76.654,2,67.91,2,57.5s.551-19.154,2.152-26.362c1.616-7.271,4.374-13.314,9.023-17.962S23.867,5.768,31.138,4.152ZM77.459,48.241a10.664,10.664,0,0,1,0,18.518L52.8,80.848A9.844,9.844,0,0,1,38.076,72.3V42.7A9.844,9.844,0,0,1,52.8,34.153Z" transform="translate(5.083 5.083)" fill="#e42020" fill-rule="evenodd"/>
  </g>
</svg>
