<svg xmlns="http://www.w3.org/2000/svg" width="83.644" height="74.708" viewBox="0 0 83.644 74.708">
  <g id="Group_23334" data-name="Group 23334" transform="translate(-185.676 -2652.456)">
    <rect id="Untitled-2" width="70" height="70" rx="35" transform="translate(185.676 2655.164)" fill="gray" opacity="0.2"/>
    <g id="secure-svgrepo-com" transform="translate(200.862 2651.456)">
      <path id="tertiary-fill" d="M63.012,12.05A43.21,43.21,0,0,1,37.243,45.715l-3.457,1.493-3.457-1.493A43.21,43.21,0,0,1,4.56,12.05a46.628,46.628,0,0,0,25.3,21.88l3.928,1.493,3.928-1.493a46.628,46.628,0,0,0,25.3-21.88Z" transform="translate(1.465 26.5)" fill="#b7b7b7"/>
      <path id="primary-stroke" d="M63.456,10.071,35.251,3l-28.2,7.071A3.928,3.928,0,0,0,4.061,14L5.75,35.683A43.21,43.21,0,0,0,31.795,72.058l3.457,1.65,3.457-1.493A43.21,43.21,0,0,0,64.752,35.84l1.689-21.684a3.928,3.928,0,0,0-2.985-4.085Z" transform="translate(0)" fill="none" stroke="#000" stroke-linecap="round" stroke-linejoin="round" stroke-width="4"/>
      <path id="secondary-stroke" d="M9,16.856l7.856,7.856L32.569,9" transform="translate(14.467 17.569)" fill="none" stroke="#151515" stroke-linecap="round" stroke-linejoin="round" stroke-width="4"/>
    </g>
  </g>
</svg>
