<svg xmlns="http://www.w3.org/2000/svg" width="511.154" height="411.305" viewBox="0 0 511.154 411.305">
  <g id="Group_23527" data-name="Group 23527" transform="translate(-0.458)">
    <path id="Path_51363" data-name="Path 51363" d="M596.128,214.923c-2.576,4.366-35.189,26.462-54.972,29.732-3.828.633-8.008.85-11.333-1.149A18.26,18.26,0,0,1,525,238.662q-4.769-6.249-9.091-12.821a21.057,21.057,0,0,1-3.527-7.408c-1.362-7.163,4.413-13.6,10.12-18.137a118.832,118.832,0,0,1,44.732-22.136c2.877-.726,5.928-1.341,8.778-.515,4.626,1.338,7.392,6.019,9.157,10.5s3.142,9.381,6.67,12.659C592.648,201.551,598.7,210.556,596.128,214.923Z" transform="translate(-97.714 -33.846)" fill="#fff"/>
    <path id="Path_51364" data-name="Path 51364" d="M394.709,420.019c-31.652,5.413-16.566-17.591-12.2-46.385,7.172-47.312,16.017-119.211,16.017-119.211s5.768,109.557,5.768,136.233S398.524,419.367,394.709,420.019Z" transform="translate(-71.534 -48.582)" fill="#fff" fill-rule="evenodd"/>
    <path id="Path_51365" data-name="Path 51365" d="M318.612,351.5c.807,7.618,1.659,15.4,4.9,22.342q-2.65-23.586-5.3-47.171c-.218-1.942-.154-4.413,1.633-5.2q2.267,26.632,6.752,53.013c.354,2.085-2.778,3.277-4.537,2.1s-2.323-3.462-2.722-5.54a267.46,267.46,0,0,1-4.785-45.941c-3.712.731-6.315,4.329-7.065,8.037s-.027,7.537.7,11.25q3.491,17.928,6.984,35.856c1.088,5.591,2.177,11.367.976,16.934q-6.929-31.638-11.128-63.794c-35.448,21.676-81.123,25.707-119.819,10.574-8.451-3.3-16.844-7.685-22.427-14.84-4.4-5.636-6.743-12.633-7.973-19.676-4.366-25.009,4.581-50.52,16.724-72.817,4.608-8.459,9.855-17.271,9.483-26.9-.128-3.314-.842-6.984,1.093-9.677.273.5-12.67-92.089-7.477-112.569,12.5-49.3,53.108-55.982,79.107-55.374,17.445.408,128.021,22.383,144,52.267,21,39.276,16.539,72.3,12.81,94.07-1.11,6.484-54.27,33.045-54.284,33.178-3.039,28.253-23.433,89.814-40.538,112.5Z" transform="translate(-29.256 -6.124)" fill="#fff"/>
    <path id="Path_51366" data-name="Path 51366" d="M34.117,276.955A34.219,34.219,0,0,0,3.28,280.018a1.893,1.893,0,0,1-2.552-1.009,4.9,4.9,0,0,1-.049-3.057c2.871-13.209,14.306-23.318,27.023-27.962s26.628-4.659,40.146-3.864a8.241,8.241,0,0,1,3.888.887,2.859,2.859,0,0,1,1.344,3.421,162.927,162.927,0,0,0-11.912,35.5c-.42,1.985-2.476,3.3-4.5,3.466a11.76,11.76,0,0,1-5.847-1.447C45.093,283.255,40,279.3,34.117,276.955Z" transform="translate(0 -46.54)" fill="#f0f0f0" fill-rule="evenodd"/>
    <path id="Path_51367" data-name="Path 51367" d="M357.03,31a81.633,81.633,0,0,0-1.693-22.645l-.034-.158h0a9.325,9.325,0,0,1-.3-3.8c.559-2.777,3.643-4.449,6.475-4.39s5.455,1.41,7.962,2.73c12.019,6.332,24.255,12.823,33.718,22.569.3,7.891-1.563,15.677-3.4,23.364l-.172.722q-11.495,48.192-18.8,97.257c-.466,3.131-1.35,6.825-4.32,7.921a5.848,5.848,0,0,1-6.12-1.912A13.563,13.563,0,0,1,367.6,146.5a42.615,42.615,0,0,1-.439-16.695,84.881,84.881,0,0,1,2.564-9.945h0c.888-2.948,1.777-5.9,2.373-8.915a92.043,92.043,0,0,0,1.188-9.147q2.326-24.426,3.947-48.912a17.463,17.463,0,0,0-.464-6.87c-1.344-3.885-5.259-6.341-9.213-7.467-.681-.194-1.374-.359-2.065-.524a20.805,20.805,0,0,1-4.691-1.517C358.7,35.436,356.877,33.349,357.03,31Zm7.344-.623a80,80,0,0,1,16.261,5.3,5.508,5.508,0,0,1,2.719,2.024,5.67,5.67,0,0,1,.5,2.741c.163,11.032.2,22.093-.97,33.063-.7,6.569-1.828,13.082-2.956,19.593-.357,2.061-.714,4.122-1.057,6.184q-2.55,15.312-4.1,30.766c-.75,7.471-1.3,15.192,1.025,22.331,1.193-.218,1.65-1.654,1.877-2.845L399.15,36.341c.52-2.743,1.04-5.578.426-8.3-1.073-4.768-5.3-8.083-9.385-10.773A144.947,144.947,0,0,0,365.266,4.119Q364.18,17.214,364.374,30.373Zm11.044,74.339a290.258,290.258,0,0,0,5.289-61.353,7.389,7.389,0,0,0-1.065-4.451,6.988,6.988,0,0,0-2.8-1.893,56.248,56.248,0,0,0-12.2-3.867c-1.214-.237-3,.02-2.946,1.256l15.078,6.231a4.61,4.61,0,0,1,2.327,1.595,4.606,4.606,0,0,1,.379,2.742ZM361.385,2.123c-1.243-.824-3.039.025-3.731,1.346a7.675,7.675,0,0,0-.43,4.386c.231,2.176.533,4.353.837,6.531.841,6.041,1.683,12.085.968,18.114a2.628,2.628,0,0,0,2.967-1.484,7.666,7.666,0,0,0,.57-3.535L362.6,5.74C362.6,4.411,362.493,2.857,361.385,2.123Zm11.166,149.765a86.7,86.7,0,0,1-.536-16.216c.176-2.891.5-5.772.817-8.652h0c.424-3.809.848-7.616.936-11.446a71.835,71.835,0,0,0-3.45,29.089C370.546,147.211,370.962,149.883,372.551,151.888Zm1.723-41.82a1.007,1.007,0,0,0,.418-1.4,1.091,1.091,0,0,0-.445,1.461Zm-4.683-46.685C344.668,48.012,316.486,38.8,288.3,30.856c-9.009-2.54-18.094-4.974-27.4-6.017-27.564-3.088-55.506,6.422-78.425,22.043-9.192,6.265-18.06,13.971-22.032,24.361-2.947,7.709-2.926,16.2-2.642,24.445.98,28.448,4.63,56.728,8.277,84.958,2.85-.515,3.132-4.457,2.719-7.324a631.733,631.733,0,0,1-6.361-79.488c-.124-7.457-.085-15.1,2.5-22.1,4.671-12.667,16.721-20.952,28.544-27.471,14.891-8.212,31.079-15.115,48.08-15.481,20.594-.444,40.114,8.691,58.105,18.724,10.03,5.593,20.2,11.839,26.579,21.388,5.794,8.67,7.9,19.236,9.419,29.553,4.825,32.741,5,65.968,5.169,99.063.007,1.339-.075,2.873-1.124,3.705a4.487,4.487,0,0,1-2.61.688l-33.6,1.749a64.734,64.734,0,0,0,47.446-4.85l37.332-19.612c3.485-1.83,7.081-3.753,9.482-6.871,3.306-4.291,3.778-10.065,3.934-15.479a234.588,234.588,0,0,0-5.934-59.557,497.515,497.515,0,0,1,.649,63.379c-.193,3.605-.482,7.387-2.443,10.419-2.095,3.239-5.735,5.073-9.2,6.758l-40.289,19.582a498.992,498.992,0,0,0-3.858-93.826c-1.422-10.447-3.238-21.041-8.019-30.438-11.3-22.208-36.306-33.194-59.42-42.5C307.737,40.763,342.687,51.04,373.774,69.2,374.178,66.692,371.754,64.717,369.592,63.383Zm128.757,95.556c1.791,4.616,4.31,9.538,8.938,11.3,1.1.085,1.752-1.37,1.392-2.409a5.424,5.424,0,0,0-1.7-2.121l-.151-.135-.077-.07-.061-.055-.038-.035-.079-.073c-2.945-2.737-4.392-6.605-5.815-10.415v0c-.282-.752-.562-1.5-.854-2.242-1.765-4.481-4.531-9.161-9.157-10.5-2.85-.824-5.9-.21-8.778.516a118.832,118.832,0,0,0-44.732,22.136c-5.707,4.539-11.482,10.974-10.12,18.137a21.058,21.058,0,0,0,3.527,7.408q4.319,6.567,9.091,12.821a18.26,18.26,0,0,0,4.819,4.844c3.325,2,7.506,1.782,11.333,1.149,19.783-3.27,36.715-15.565,52.826-27.5a6.261,6.261,0,0,0,2.146-2.231,2.15,2.15,0,0,0-.672-2.759c-1.057-.561-2.3.214-3.245.951-14.993,11.739-31.008,23.208-49.6,27.332-3.523.782-7.408,1.242-10.578-.484-2.372-1.29-3.975-3.612-5.487-5.849L431.9,184.775a7.444,7.444,0,0,1-1.637-3.835c-.029-1.41,1.11-2.936,2.509-2.754q19.718,2.564,39.588,3.684a6.579,6.579,0,0,0,3.116-.332,6.485,6.485,0,0,0,2.65-3,133.228,133.228,0,0,0,12.7-32.138c3.74,2.682,5.485,7.224,7.15,11.558l0,0Q498.16,158.45,498.349,158.939Zm-11.569-13.429a114.24,114.24,0,0,1-11,26.852,9.349,9.349,0,0,1-3.1,3.692c-1.786,1.045-4.006.849-6.062.619l-32.744-3.654c5.433-7.179,13.5-11.838,21.567-15.841a238.806,238.806,0,0,1,23.463-10.122C481.443,146.12,484.1,145.215,486.779,145.509ZM305.844,345.371c.807,7.619,1.659,15.4,4.9,22.343l-5.3-47.171c-.218-1.942-.154-4.413,1.633-5.205q2.267,26.633,6.752,53.014c.354,2.085-2.778,3.277-4.537,2.1s-2.323-3.462-2.722-5.539a267.46,267.46,0,0,1-4.785-45.941c-3.712.731-6.315,4.329-7.065,8.037s-.027,7.536.7,11.25l6.984,35.856c1.088,5.591,2.177,11.367.976,16.934q-6.929-31.639-11.128-63.794c-35.448,21.676-81.123,25.707-119.819,10.574-8.451-3.3-16.844-7.685-22.427-14.84-4.4-5.637-6.743-12.634-7.973-19.676-4.366-25.01,4.581-50.521,16.724-72.817q.475-.871.956-1.748c4.345-7.926,8.873-16.184,8.527-25.149-.023-.592-.065-1.2-.106-1.8-.193-2.79-.391-5.661,1.2-7.873a20.444,20.444,0,0,1,2.272,12.841q55.047-2.369,110.169-.954c.429,1.688-2.018,2.472-3.759,2.447q-51.4-.767-102.781,1.75a4.813,4.813,0,0,0-5.191,3.39c-9.715,19.009-19.462,38.294-24.157,59.119-2.415,10.709-3.34,22.429,1.609,32.229a38.6,38.6,0,0,0,7.5,9.925c15.917,15.7,39.753,20.514,62.108,20.138a169.727,169.727,0,0,0,42.258-6.088c14.582-4.026,29.125-10.371,39.079-21.763,5.845-6.69,9.818-14.791,13.3-22.966a257.6,257.6,0,0,0,15.187-48.482c2.16.455,2.19,3.508,1.692,5.658-6.166,26.6-13.332,54.95-33.639,73.2-18.341,16.484-44.186,21.6-68.807,22.975-14.222.8-28.669.548-42.444-3.078s-26.928-10.878-35.673-22.122c2.551,9.726,11.191,16.666,20.186,21.157,23.617,11.794,51.507,11.171,77.585,7.071,17.372-2.731,35.2-7.213,48.722-18.458,11.556-9.612,18.92-23.34,24.463-37.313a206.633,206.633,0,0,0,12.646-48.16c1.4-.887,2.443,1.593,2.265,3.243A159.148,159.148,0,0,1,302.941,318ZM289.42,393.683a21.428,21.428,0,0,1-2.829-8.342l-2.165,7.337-5.464-20.839c-.423-1.617-1.455-3.639-3.09-3.292-1.589.337-1.768,2.519-1.531,4.126a92.409,92.409,0,0,0,6.731,23.5l-5.811-5.1a10.179,10.179,0,0,0,1.76,6.951,12.73,12.73,0,0,0-10.714-2,26.461,26.461,0,0,0,10.126,8.425l-4.91-6.853a83.477,83.477,0,0,0,12.417,5.862l-4.16-5.217,5.141,1.425c-3.934-8.948-7.941-18.238-7.845-28.011A140.127,140.127,0,0,0,283.581,395a8.525,8.525,0,0,0,2.04,3.522,3.041,3.041,0,0,0,3.762.4,4.5,4.5,0,0,0,1.267-2.855l2.315-12.84,2.544,15.923c1.928-4.87,8.2-6.091,13.436-6.123a182.132,182.132,0,0,1,20.834,1.479h0c12.529,1.37,25,2.733,37-.637a20.094,20.094,0,0,1-1.825,5.345,180.155,180.155,0,0,1,29.274-1.848c4.133.076,8.279.294,12.425.511h0c10.959.575,21.92,1.15,32.658-.885l-71.269-.626a2.163,2.163,0,1,0-1.41-3.9,3.827,3.827,0,0,0-5.7-1.793,17.041,17.041,0,0,1,5.982-8.343A13.773,13.773,0,0,0,358.045,385l7.666-35.479a1.588,1.588,0,0,0-2.208.526,4.769,4.769,0,0,0-.577,2.438l0,.027a64.088,64.088,0,0,1-12.15,33.8l-2.811-8.135-4.03,9.717a6.773,6.773,0,0,0-6.558-.9,6.53,6.53,0,0,0,4.256,4.476l.954-2.555,6.3,4.217a8.45,8.45,0,0,1-1.224-9.688l3.81,6.391,7.384-14.6c.041,5.864-2.472,11.407-4.935,16.728a28.884,28.884,0,0,0,6.763-7.568c1.722,3.049-.159,7.137-3.154,8.953s-6.7,1.913-10.2,1.765c-5.338-.226-10.717-.9-16.089-1.566h0c-12.064-1.5-24.1-3-35.555.549l-1.653-15.238A38.451,38.451,0,0,0,289.42,393.683Zm71.9.407a.894.894,0,0,1,0-1.114l.209.078a1.177,1.177,0,0,1,2.092.1A5.3,5.3,0,0,1,361.323,394.09ZM400.259,232.2c-8.3-4.195-18.178-3.063-27.391-1.8a24.653,24.653,0,0,0-7.616,1.891,8.374,8.374,0,0,0-4.819,5.855,111.863,111.863,0,0,1-60.859-27.954c-3.645-3.307-7.364-8.018-5.725-12.658a11.65,11.65,0,0,1,2.561-3.832c7.829-8.584,18.624-13.747,29.132-18.7a47.52,47.52,0,0,0-31.22,15.827,16.84,16.84,0,0,0-4.095,7.03c-1.536,6.589,3.582,12.77,8.7,17.191a111.342,111.342,0,0,0,58.314,25.983c1.284.163,1.35,1.969,1.233,3.258-.522,5.735,2.6,11.331,6.937,15.124s9.759,6.07,15.144,8.11a269.111,269.111,0,0,0,51.578,13.865c1.163.192,2.76.1,3-1.052-4.061-2.686-8.948-3.71-13.727-4.71l-.017,0-.053-.011-.411-.086-.292-.061a292.319,292.319,0,0,1-35.763-9.939c-4.8-1.668-9.607-3.49-13.789-6.371s-7.736-6.952-9.074-11.852c-.66-2.42.236-6.032,2.726-5.727,10.137,1.239,20.554,2.464,30.453-.051,2.24-.569,4.575-1.427,5.941-3.292S402.323,233.24,400.259,232.2Zm-25.571,6.7a42.281,42.281,0,0,0-10.555-.477c1.71-3.248,5.888-4.1,9.526-4.6,7.906-1.076,16.14-2.126,23.715.38a2.253,2.253,0,0,1,1.306.829,1.584,1.584,0,0,1-.41,1.88,4.358,4.358,0,0,1-1.865.877A49.7,49.7,0,0,1,374.689,238.9ZM259.535,402.792a35.946,35.946,0,0,1,16.9,3.714c-1.395,2-4.2,2.286-6.639,2.379L206,411.3c-.585-.072-.695-.975-.281-1.394a2.417,2.417,0,0,1,1.65-.5l62.275-3.037A21.893,21.893,0,0,1,259.535,402.792ZM136.766,191.812c-.909,4.348,2.769,8.986,7.2,9.315-7.243,10.917-20.291,16.3-32.827,20.107-7.824,2.373-16.5,4.322-23.963.973-.926.566.061,1.959,1.039,2.43,7.259,3.5,15.865,1.549,23.586-.756,11.323-3.379,22.995-7.747,30.7-16.706.316-.367.629-.744.946-1.124h0c1.983-2.383,4.051-4.869,7.032-5.421,9.6-1.775,17.594-7.787,25.494-13.728h0c1.791-1.347,3.578-2.691,5.376-3.98A133.656,133.656,0,0,1,217.2,164.686c1.128-.374,2.5-1.066,2.4-2.25-15.841,1.454-29.688,10.9-42.456,20.39l-.426.317c-8.677,6.451-17.745,13.192-28.422,14.79,3.488-2.751,2.752-9.107-1.183-11.167S137.675,187.464,136.766,191.812Zm2.955,2.657a4.942,4.942,0,0,1,2.341-5.686,3.816,3.816,0,0,1,1.807-.506c2.085,0,3.608,2.229,3.622,4.315s-1.044,4.009-2.071,5.824C143.016,198.048,140.5,196.773,139.722,194.469ZM376.767,148c-.591-.658-.409-1.543-.221-2.46a4.817,4.817,0,0,0,.138-1.922,4.155,4.155,0,0,0-.732-1.433,4.8,4.8,0,0,1-.69-1.26c.032-.605.841-.916,1.393-.664a2.248,2.248,0,0,1,1.053,1.417A7.163,7.163,0,0,1,376.767,148Zm-53.4-46.014c1.477-3.5,4.4-6.6,8.134-7.313,1.207-.23,1.169-2.221.112-2.846a3.85,3.85,0,0,0-3.527.272c-5.169,2.461-8.433,7.877-9.712,13.457s-.855,11.392-.426,17.1L320.231,153a6.092,6.092,0,0,0,.747,2.976c1.17,1.752,3.68,1.807,5.783,1.674l10.646-.676a10.793,10.793,0,0,0-8.5-2.089,4.485,4.485,0,0,1-4.375-2.318,12.633,12.633,0,0,1-1.409-5.031,209.46,209.46,0,0,1-1.626-34.377C321.633,109.36,321.888,105.481,323.364,101.982ZM350.546,371.33c-.6.438-1.211-.561-1.3-1.3-4.113-34.58-4.734-69.471-5.349-104.29l-.415-23.473a2.839,2.839,0,0,1,.427-1.913c.74-.883,2.3-.478,2.942.475a5.677,5.677,0,0,1,.626,3.337c-.634,34.264-.218,68.595,3.063,102.707q.059.623.121,1.246h0C351.412,355.866,352.176,363.732,350.546,371.33Zm-34.2-217.978a3.966,3.966,0,0,0-3,.077c-45.608,13.488-91.112,27.4-135.946,43.273-.839.3-1.8.725-1.991,1.595a1.833,1.833,0,0,0,1.59,1.97,5.328,5.328,0,0,0,2.75-.486q67.4-24.792,136.668-44.02C317.406,155.485,317.244,153.847,316.343,153.352Z" transform="translate(-16.488)" fill="#00160a" fill-rule="evenodd"/>
    <path id="Path_51368" data-name="Path 51368" d="M566.242,432.178a6.013,6.013,0,0,1-3.354.7,2.264,2.264,0,0,1-1.983-2.406,37.582,37.582,0,0,0-7.031-30.031c-2.277-2.938-4.987-5.523-7.2-8.5-1.4-1.879-2.641-4.242-1.933-6.473,1.009-3.176,5.071-3.948,8.4-4.176l23.185-1.58c3.561-.243,7.663-.278,10.039,2.384,6.617,7.412,19.514,7.909,26.683,1.029,1.109-1.065,2.506,1.055,2.462,2.592a19.919,19.919,0,0,1-5.476,13.078,3.831,3.831,0,0,1-2.934,1.512c-1.134-.118-1.971-1.748-1.066-2.443a22.573,22.573,0,0,0,5.277-5.052,7.644,7.644,0,0,0,1.093-6.964q-7.489,9.473-15.12,18.832C588.455,415.5,579.021,426.564,566.242,432.178Zm13.94-31.834a7.3,7.3,0,0,1-3.892-.277c-9.122-2.578-17.525-9.7-26.856-8.036a41.248,41.248,0,0,1,14.658,37.279c7.168-1.535,12.829-6.887,17.907-12.175Q593.271,405.4,603.372,392.6a26.649,26.649,0,0,1-13.751-3.982C584.548,389.873,585.217,398.952,580.182,400.345Zm6.625-14.391c-3.022-3.562-8.452-3.452-13.106-3.044l-18.208,1.6c-2.464.216-5.294.649-6.579,2.763a135.517,135.517,0,0,1,30.437,10.265,19.983,19.983,0,0,1,7.038-9.878c.371-.276.794-.63.745-1.09a1.2,1.2,0,0,0-.328-.616Z" transform="translate(-103.89 -72.486)" fill="#f0f0f0" fill-rule="evenodd"/>
    <path id="Path_51369" data-name="Path 51369" d="M33.323,275.252a31.328,31.328,0,0,0-28.278,2.814,1.735,1.735,0,0,1-2.34-.927,4.508,4.508,0,0,1-.045-2.808C5.293,262.2,15.779,252.91,27.44,248.643s24.417-4.279,36.814-3.55a7.557,7.557,0,0,1,3.565.815,2.629,2.629,0,0,1,1.232,3.143,149.86,149.86,0,0,0-10.923,32.61A4.49,4.49,0,0,1,54,284.845a10.772,10.772,0,0,1-5.361-1.328C43.388,281.04,38.714,277.408,33.323,275.252Zm1.045-12.28a2.274,2.274,0,0,1-2.855-.4A15.248,15.248,0,0,1,29.707,260c-3.232-4.611-10.65-4.228-15.046-.71S8.137,268.366,6.2,273.653A40.217,40.217,0,0,1,46.082,278.7c1.515,1.18,3.018,2.509,4.884,2.963s4.216-.362,4.688-2.222a261.256,261.256,0,0,1,9.311-29.312C57.912,258.9,43.1,255.878,34.368,262.973Zm-2.807-5.3a3.317,3.317,0,0,0,3.184.947A15.056,15.056,0,0,0,38,257.382c3.673-1.6,7.74-1.953,11.678-2.683s8-1.965,10.77-4.855l-18.762-.057c-6.285-.019-13.058.114-18.107,3.857A10.859,10.859,0,0,1,31.561,257.675Z" transform="translate(-0.382 -46.731)" fill="gray" fill-rule="evenodd"/>
    <path id="Path_51370" data-name="Path 51370" d="M403.614,275.732q-.022-8.251-.045-16.5-.006-2.37-.012-4.739c0-1.09.18-2.452,1.214-2.791a1.793,1.793,0,0,1,2.011,1.044,5.231,5.231,0,0,1,.35,2.422q-.171,11.514-.342,23.03c-.017,1.1-.2,2.462-1.235,2.849-1.724-.977-1.935-3.332-1.941-5.313Z" transform="translate(-76.972 -48.05)" fill="#00160a" fill-rule="evenodd"/>
    <path id="Path_51371" data-name="Path 51371" d="M389.792,271.174c-.8.349-1.207-.963-1.084-1.824a92.26,92.26,0,0,1,1.631-9.188c.467-1.88,1.139-3.858,2.692-5.016s4.22-.956,4.98.826a4.87,4.87,0,0,1,.046,2.773,137.625,137.625,0,0,1-4.214,16.9,1.492,1.492,0,0,1-.334.65,1.042,1.042,0,0,1-1.515-.383,3.016,3.016,0,0,1-.213-1.757c.715-.053,1.049-.894,1.22-1.59q1.052-4.265,2.1-8.528c.546-2.212,1.044-4.731-.226-6.623-1.305.8-1.794,2.428-2.183,3.91q-1.172,4.472-2.343,8.944a1.255,1.255,0,0,1-.561.906Z" transform="translate(-74.132 -48.582)" fill="#00160a" fill-rule="evenodd"/>
  </g>
</svg>
