<svg xmlns="http://www.w3.org/2000/svg" width="105.112" height="80.334" viewBox="0 0 105.112 80.334">
  <g id="Group_23091" data-name="Group 23091" transform="translate(-186 -2654.777)">
    <rect id="Untitled-2" width="80" height="80" rx="40" transform="translate(186 2655)" fill="gray" opacity="0.2"/>
    <path id="Path_8174" data-name="Path 8174" d="M40.112,0A40.112,40.112,0,1,0,68.475,11.748,40.112,40.112,0,0,0,40.112,0Z" transform="translate(210.888 2654.777)" fill="#151515"/>
    <path id="Path_8172" data-name="Path 8172" d="M40.112,0A40.112,40.112,0,1,0,68.475,11.748,40.112,40.112,0,0,0,40.112,0Zm1.431,11.566L55.488,5.99a37.5,37.5,0,0,1,4.583,2.47l.037.023a37.669,37.669,0,0,1,4.128,3.025l.114.1q.879.749,1.708,1.548l.211.217q.869.849,1.671,1.752l.134.154c.478.535.936,1.09,1.381,1.651l.334.4q.727.938,1.391,1.919L68.4,31.053,54.719,35.612,41.546,25.07ZM10.436,17.328l.318-.4q.669-.836,1.364-1.635l.147-.17q.812-.9,1.671-1.752c.067-.067.134-.134.2-.194q.822-.8,1.695-1.538l.134-.114a37.8,37.8,0,0,1,4.088-3.008l.053-.033a37.555,37.555,0,0,1,4.563-2.467l14.009,5.549v13.5L25.5,35.609,11.826,31.056,9.049,19.24C9.493,18.572,9.954,17.95,10.436,17.328Zm-1.611,43.3Q8.236,59.73,7.7,58.8l-.087-.15q-.535-.929-1-1.889v-.02a37.233,37.233,0,0,1-1.762-4.145c-.237-.669-.455-1.337-.669-2.042L4.1,50.3q-.274-.969-.5-1.962a.979.979,0,0,0-.043-.191,37.208,37.208,0,0,1-.705-4.529l8.173-9.807,13.581,4.526L28.553,54.1l-6.491,8.621ZM49.016,76.469c-.669.167-1.354.308-2.042.438l-.291.053c-.585.1-1.177.194-1.768.267l-.471.06c-.548.064-1.1.114-1.671.154l-.521.04c-.712.043-1.427.07-2.149.07q-1,0-1.972-.053a.924.924,0,0,1-.234-.02q-.872-.05-1.738-.134H36.09a38.1,38.1,0,0,1-3.77-.6L24.411,64.376l6.374-8.5H49.414l6.478,8.557ZM76.673,48.134a.979.979,0,0,1-.043.191q-.224,1-.5,1.962l-.07.254c-.2.689-.418,1.37-.669,2.042a37.126,37.126,0,0,1-1.762,4.145v.02q-.481.959-1,1.889l-.087.15q-.535.936-1.126,1.828l-13.19,2.079L51.7,54.084,55.645,38.32l13.581-4.526,8.163,9.794a37.127,37.127,0,0,1-.705,4.533Z" transform="translate(210.888 2654.888)" fill="#fff"/>
  </g>
</svg>
