<svg xmlns="http://www.w3.org/2000/svg" width="104.624" height="82.351" viewBox="0 0 104.624 82.351">
  <g id="Group_23091" data-name="Group 23091" transform="translate(-186 -2652.649)">
    <rect id="Untitled-2" width="80" height="80" rx="40" transform="translate(186 2655)" fill="gray" opacity="0.2"/>
    <path id="Path_8176" data-name="Path 8176" d="M80,38.827H73.3V27.447l-6.025-2.342,3.013,14.729,3.349,17.418,3.013,14.729H69.612L63.6,45.19l-7.042,6.7V71.969H49.874V46.864l7.042-6.7L54.907,30.126a27.924,27.924,0,0,1-7.042,5.355,14.063,14.063,0,0,1-8.37-4.017,15.8,15.8,0,0,0,11.38-7.7l3.346-5.355a6.215,6.215,0,0,1,8.7-2.679L80,23.1V38.831M54.895,0a6.714,6.714,0,1,1-4.729,1.966A6.7,6.7,0,0,1,54.895,0Z" transform="translate(210.624 2652.649)" fill="#fff"/>
    <path id="Path_8175" data-name="Path 8175" d="M37.156,34.477A16.434,16.434,0,0,0,49.206,39.5l.334,7.042A24.356,24.356,0,0,1,32.468,39.5l-2.342-2.342-7.7,8.034,7.363,7.042V72.315H23.1V54.895l-4.354-4.017v7.363L4.684,72.631,0,67.95,12.051,55.9,8.034,44.185a4.473,4.473,0,0,1,2.008-5.021L21.088,28.118a5.845,5.845,0,0,1,4.687-2.342,6.013,6.013,0,0,1,3.674,1l7.7,7.7M49.874,46.864,37.823,13.725a6.714,6.714,0,1,1-4.729,1.967A6.7,6.7,0,0,1,37.823,13.725Z" transform="translate(207.624 2652)" fill="#151515"/>
  </g>
</svg>
