<svg xmlns="http://www.w3.org/2000/svg" width="104.624" height="80" viewBox="0 0 104.624 80">
  <g id="Group_23091" data-name="Group 23091" transform="translate(-186 -2655)">
    <rect id="Untitled-2" width="80" height="80" rx="40" transform="translate(186 2655)" fill="gray" opacity="0.2"/>
    <g id="Group_23090" data-name="Group 23090" transform="translate(210.624 2655)">
      <path id="Path_8168" data-name="Path 8168" d="M65.5,11.05l-.28.409a1.46,1.46,0,1,1-2.388-1.665c.386-.556.764-1.112,1.143-1.672-.587-1.024-1.225-2.006-1.907-2.978C53.591,15.168,44.438,25.131,34.792,34.776S15.192,53.568,5.157,62.05q1.45,1.024,2.975,1.907c.563-.382,1.123-.761,1.682-1.15A1.46,1.46,0,0,1,11.48,65.2l-.433.3A40.874,40.874,0,0,0,65.5,11.05ZM18.6,60.033q-1.174.89-2.358,1.76a1.46,1.46,0,1,1-1.726-2.351q1.163-.856,2.32-1.733A1.46,1.46,0,1,1,18.6,60.037Zm6.912-5.459q-1.136.938-2.279,1.859a1.461,1.461,0,1,1-1.829-2.279q1.129-.9,2.245-1.829a1.46,1.46,0,0,1,1.863,2.248Zm6.677-5.756q-1.1.983-2.2,1.948a1.46,1.46,0,0,1-1.921-2.2q1.092-.952,2.17-1.924a1.46,1.46,0,0,1,1.952,2.173Zm6.438-6.025q-1.058,1.024-2.122,2.047A1.46,1.46,0,0,1,34.5,42.722q1.051-1,2.088-2.01A1.463,1.463,0,0,1,38.638,42.8Zm6.192-6.274q-1.024,1.064-2.047,2.119a1.463,1.463,0,1,1-2.091-2.047q1.024-1.024,2.01-2.091a1.46,1.46,0,1,1,2.119,2.01ZM50.756,30q-.966,1.105-1.948,2.2a1.46,1.46,0,1,1-2.173-1.952q.969-1.078,1.924-2.17A1.46,1.46,0,1,1,50.756,30Zm5.664-6.755q-.918,1.143-1.853,2.276a1.46,1.46,0,0,1-2.252-1.856q.924-1.119,1.832-2.248a1.46,1.46,0,1,1,2.276,1.829ZM61.8,16.26q-.867,1.18-1.76,2.354a1.46,1.46,0,1,1-2.327-1.76q.877-1.16,1.737-2.323a1.46,1.46,0,0,1,2.347,1.733Z" transform="translate(10.563 10.564)" fill="#151515"/>
      <path id="Path_8169" data-name="Path 8169" d="M64.314,7.409q-1.457-1.024-2.992-1.921c-.563.382-1.122.761-1.682,1.15a1.46,1.46,0,0,1-1.665-2.388l.433-.3A40.873,40.873,0,0,0,3.949,58.4l.28-.413a1.46,1.46,0,0,1,2.388,1.665c-.386.556-.764,1.112-1.143,1.672.59,1.024,1.232,2.016,1.917,3C15.884,54.29,25.037,44.341,34.676,34.686S54.28,15.89,64.314,7.409ZM50.838,9.418q1.173-.89,2.358-1.76a1.46,1.46,0,1,1,1.726,2.351q-1.164.856-2.32,1.733a1.46,1.46,0,1,1-1.764-2.327Zm-6.912,5.459q1.136-.938,2.279-1.859A1.461,1.461,0,0,1,48.033,15.3q-1.129.9-2.245,1.829a1.46,1.46,0,1,1-1.863-2.248ZM37.248,20.65q1.1-.983,2.2-1.948a1.46,1.46,0,0,1,1.921,2.2q-1.092.952-2.17,1.924a1.46,1.46,0,1,1-1.948-2.173ZM11.731,52.618q-.877,1.16-1.737,2.323a1.46,1.46,0,1,1-2.347-1.733q.867-1.18,1.757-2.354a1.46,1.46,0,1,1,2.327,1.76Zm5.4-6.824Q16.2,46.914,15.3,48.043a1.46,1.46,0,1,1-2.276-1.829q.918-1.143,1.853-2.276a1.46,1.46,0,1,1,2.252,1.856Zm5.691-6.571q-.972,1.078-1.924,2.17a1.46,1.46,0,1,1-2.2-1.921q.966-1.105,1.948-2.2a1.46,1.46,0,0,1,2.173,1.952Zm5.94-6.349q-1.024,1.024-2.01,2.091a1.46,1.46,0,1,1-2.119-2.009q1.024-1.064,2.047-2.119a1.463,1.463,0,0,1,2.091,2.047Zm3.071-3.688a1.46,1.46,0,0,1-1.024-2.5q1.058-1.024,2.122-2.047a1.46,1.46,0,0,1,2.006,2.119q-1.051,1-2.088,2.01a1.457,1.457,0,0,1-1.02.416Z" transform="translate(0 0)" fill="#fff"/>
      <path id="Path_8170" data-name="Path 8170" d="M63.368,5.864c-.56-.683-1.153-1.365-1.764-2.007L3.862,61.625c.655.611,1.32,1.205,2.006,1.768,10.143-8.554,20.218-17.809,29.959-27.555S54.828,16,63.368,5.864Z" transform="translate(7.44 7.426)" fill="#fff"/>
      <path id="Path_8171" data-name="Path 8171" d="M60.2,2.7C50.058,11.233,39.98,20.5,30.236,30.254S11.242,50.084,2.7,60.229c.556.683,1.146,1.342,1.754,1.994L62.187,4.454C61.539,3.846,60.877,3.259,60.2,2.7Z" transform="translate(6.501 6.511)" fill="#fff"/>
    </g>
  </g>
</svg>
