<svg xmlns="http://www.w3.org/2000/svg" width="81.167" height="70" viewBox="0 0 81.167 70">
  <g id="Group_23091" data-name="Group 23091" transform="translate(-185.676 -2655.164)">
    <rect id="Untitled-2" width="71" height="70" rx="35" transform="translate(185.676 2655.164)" fill="gray" opacity="0.2"/>
    <g id="shopping-online-support-svgrepo-com" transform="translate(193.597 2659.43)">
      <path id="Path_8300" data-name="Path 8300" d="M61.907,25.387H60.7C57.685,16.33,48.689,9.746,38.087,9.746s-19.6,6.585-22.614,15.641H14.262a4.56,4.56,0,0,0-4.551,4.555v5.3a4.562,4.562,0,0,0,4.551,4.551h1.084c4.338,16.784,22.069,21.5,22.269,21.559l.463.116.456-.111c.206-.048,18-4.583,22.312-21.564h1.061a4.56,4.56,0,0,0,4.555-4.551v-5.3A4.564,4.564,0,0,0,61.907,25.387Zm-8.5,21.589H41.468a3.4,3.4,0,1,0,.236,2.714h9.44a30.971,30.971,0,0,1-13.054,7.843c-3.1-.925-19.9-6.811-19.9-25.486,0-.313.009-.614.032-.921,5.145-.966,11.163-2.583,13.2-5.054,0,0,.812,4.612-2.175,6.512,0,0,10.589-1.626,12.494-4.88,0,0,.372,8.442,16.054,7.51A24.179,24.179,0,0,1,53.406,46.975ZM71.045,28.153C70.391,12.027,56.442,0,38.087,0S5.782,12.022,5.127,28.153a3.587,3.587,0,0,0-2.2,3.231v2.408A3.9,3.9,0,0,0,7.1,37.441H8.918V28.62C9.326,14.419,21.722,3.8,38.087,3.8s28.772,10.63,29.167,24.84v8.8h1.819a3.893,3.893,0,0,0,4.174-3.644V31.386A3.585,3.585,0,0,0,71.045,28.153Z" transform="translate(0)"/>
    </g>
  </g>
</svg>
