<svg xmlns="http://www.w3.org/2000/svg" width="50" height="50" viewBox="0 0 50 50">
  <g id="Group_23311" data-name="Group 23311" transform="translate(-191 -688)">
    <g id="Ellipse_861" data-name="Ellipse 861" transform="translate(191 688)" fill="#fff" stroke="#f0f0f0" stroke-width="1">
      <circle cx="25" cy="25" r="25" stroke="none"/>
      <circle cx="25" cy="25" r="24.5" fill="none"/>
    </g>
    <g id="style_doutone" data-name="style=doutone" transform="translate(203.75 700.75)">
      <g id="call">
        <path id="vector_Stroke_" data-name="vector (Stroke)" d="M5.59,2.75a2.186,2.186,0,0,0-1.554.724L4.03,3.48l-.006.005a3.854,3.854,0,0,0-.967,1.4l0,0A4.424,4.424,0,0,0,2.75,6.54a7.677,7.677,0,0,0,.661,2.978A17.083,17.083,0,0,0,5.288,12.78,27.663,27.663,0,0,0,8,15.96a27.993,27.993,0,0,0,3.192,2.725,16.811,16.811,0,0,0,3.292,1.9,7.589,7.589,0,0,0,2.966.67,4.271,4.271,0,0,0,1.661-.322l0,0a3.549,3.549,0,0,0,1-.628,4.5,4.5,0,0,0,.35-.344l.315-.4a3.434,3.434,0,0,0,.259-.456,1.8,1.8,0,0,0,.178-.77,1.293,1.293,0,0,0-.1-.488.781.781,0,0,0-.286-.315l-.007,0-3.3-2.346a3.112,3.112,0,0,0-.556-.312.852.852,0,0,0-.326-.074.585.585,0,0,0-.32.1L16.3,14.9l-.022.011a2.354,2.354,0,0,0-.537.425l0,0-.759.749a1.3,1.3,0,0,1-.938.388,1.437,1.437,0,0,1-.513-.088l-.016-.006-.016-.007-.115-.051-.049-.022-.037-.015-.035-.019a8.386,8.386,0,0,1-1.424-1.01h0c-.55-.466-1.084-.97-1.63-1.506l-.005,0-.005-.005C9.661,13.2,9.17,12.66,8.713,12.131l-.005-.006a9,9,0,0,1-1.016-1.405L7.66,10.66,7.639,10.6l-.016-.038,0-.008c-.012-.029-.032-.076-.052-.128l-.015-.04-.01-.041A1.656,1.656,0,0,1,7.49,9.93a1.284,1.284,0,0,1,.374-.924l.761-.791L8.63,8.21a2.666,2.666,0,0,0,.437-.549l.006-.011.006-.01a.611.611,0,0,0,.1-.32A.848.848,0,0,0,9.1,7.005l0-.011a2.68,2.68,0,0,0-.314-.546l0,0L6.453,3.167a.881.881,0,0,0-.368-.306l-.01,0A1.13,1.13,0,0,0,5.59,2.75ZM2.99,2.4a3.673,3.673,0,0,1,2.6-1.15A2.63,2.63,0,0,1,6.719,1.5a2.379,2.379,0,0,1,.965.808L10,5.574a4.17,4.17,0,0,1,.481.846,2.322,2.322,0,0,1,.2.9,2.1,2.1,0,0,1-.313,1.089,4.148,4.148,0,0,1-.671.856l-.689.716c.007.016.016.039.026.065a7.994,7.994,0,0,0,.817,1.107c.44.509.907,1.024,1.411,1.537.532.522,1.036,1,1.544,1.428a7.153,7.153,0,0,0,1.128.814l.059.026.69-.681a3.839,3.839,0,0,1,.88-.681,2.074,2.074,0,0,1,1.079-.307,2.344,2.344,0,0,1,.894.186,4.612,4.612,0,0,1,.838.464l.006,0L21.691,16.3a2.263,2.263,0,0,1,.806.952l.005.012,0,.012a2.8,2.8,0,0,1,.214,1.059,3.3,3.3,0,0,1-.322,1.41,4.873,4.873,0,0,1-.8,1.2,6.029,6.029,0,0,1-.489.482,5.045,5.045,0,0,1-1.42.887,5.771,5.771,0,0,1-2.236.437,9.079,9.079,0,0,1-3.554-.79A18.311,18.311,0,0,1,10.309,19.9h0a29.5,29.5,0,0,1-3.365-2.873l-.005-.005a29.159,29.159,0,0,1-2.863-3.356l0,0A18.575,18.575,0,0,1,2.03,10.1v0A9.168,9.168,0,0,1,1.25,6.54a5.923,5.923,0,0,1,.413-2.207A5.35,5.35,0,0,1,2.99,2.4Z" fill-rule="evenodd"/>
        <path id="vector_Stroke__2" data-name="vector (Stroke)_2" d="M5.59,2.75a2.186,2.186,0,0,0-1.554.724L4.03,3.48l-.006.005a3.854,3.854,0,0,0-.967,1.4l0,0A4.424,4.424,0,0,0,2.75,6.54a7.677,7.677,0,0,0,.661,2.978A17.083,17.083,0,0,0,5.288,12.78,27.668,27.668,0,0,0,8,15.962L6.937,17.018a29.161,29.161,0,0,1-2.863-3.356l0,0A18.575,18.575,0,0,1,2.03,10.1v0A9.168,9.168,0,0,1,1.25,6.54a5.923,5.923,0,0,1,.413-2.207A5.35,5.35,0,0,1,2.99,2.4a3.673,3.673,0,0,1,2.6-1.15A2.63,2.63,0,0,1,6.719,1.5a2.379,2.379,0,0,1,.965.808L10,5.574a4.17,4.17,0,0,1,.481.846,2.322,2.322,0,0,1,.2.9,2.1,2.1,0,0,1-.313,1.089,4.148,4.148,0,0,1-.671.856l-.689.716c.007.016.016.039.026.065a7.994,7.994,0,0,0,.817,1.107c.442.51.91,1.027,1.416,1.542l-1.071,1.051C9.661,13.2,9.17,12.66,8.713,12.131l-.005-.006a9,9,0,0,1-1.016-1.405L7.66,10.66,7.639,10.6l-.016-.038,0-.008c-.012-.029-.032-.076-.052-.128l-.015-.04-.01-.041A1.656,1.656,0,0,1,7.49,9.93a1.284,1.284,0,0,1,.374-.924l.761-.791L8.63,8.21a2.666,2.666,0,0,0,.437-.549l.006-.011.006-.01a.611.611,0,0,0,.1-.32A.848.848,0,0,0,9.1,7.005l0-.011a2.68,2.68,0,0,0-.314-.546l0,0L6.453,3.167a.881.881,0,0,0-.368-.306l-.01,0A1.13,1.13,0,0,0,5.59,2.75Z" fill="#bfbfbf" fill-rule="evenodd"/>
      </g>
    </g>
  </g>
</svg>
