<svg xmlns="http://www.w3.org/2000/svg" width="60.895" height="60.895" viewBox="0 0 60.895 60.895">
  <path id="telegram-svgrepo-com" d="M30.447,0A30.447,30.447,0,1,0,60.895,30.447,30.449,30.449,0,0,0,30.447,0ZM45.4,20.859,40.4,44.4c-.368,1.67-1.363,2.075-2.75,1.289l-7.612-5.607-3.669,3.537a1.925,1.925,0,0,1-1.522.748h-.013l.54-7.749L39.485,23.881c.609-.54-.137-.847-.946-.307L21.11,34.55,13.6,32.206c-1.624-.515-1.67-1.624.343-2.421L43.288,18.474c1.365-.5,2.552.325,2.111,2.388Z" fill="#00aeed"/>
</svg>
