<svg xmlns="http://www.w3.org/2000/svg" width="51" height="51" viewBox="0 0 51 51">
  <g id="Group_14926" data-name="Group 14926" transform="translate(-160 -552)">
    <circle id="Ellipse_1" data-name="Ellipse 1" cx="25.5" cy="25.5" r="25.5" transform="translate(160 552)" fill="#151515"/>
    <g id="Group_14925" data-name="Group 14925" transform="translate(-111.42 -106.598)">
      <path id="Path_95" data-name="Path 95" d="M10.913,14.218h.3A6.152,6.152,0,0,1,11.3,12.3,2,2,0,1,1,12.7,9.433,6.3,6.3,0,0,1,14.186,8.18a3.913,3.913,0,1,0-3.272,6.057Z" transform="translate(279.889 665.189)" fill="#fff"/>
      <path id="Path_100" data-name="Path 100" d="M10.27,14.218h-.3A6.152,6.152,0,0,0,9.887,12.3a2,2,0,1,0-1.407-2.87A6.3,6.3,0,0,0,7,8.18a3.913,3.913,0,1,1,3.272,6.057Z" transform="translate(293.275 665.189)" fill="#fff"/>
      <path id="Path_96" data-name="Path 96" d="M12.629,18.045a6.248,6.248,0,0,1-1.225-2.1h-.6A8.3,8.3,0,0,0,4.65,18.351l-.23.268v6.7H6.334V19.356A6.7,6.7,0,0,1,10.8,17.825a7.741,7.741,0,0,1,1.828.22Z" transform="translate(280 664.777)" fill="#fff"/>
      <path id="Path_101" data-name="Path 101" d="M4.42,18.045a6.248,6.248,0,0,0,1.225-2.1h.6A8.3,8.3,0,0,1,12.4,18.351l.23.268v6.7H10.716V19.356a6.7,6.7,0,0,0-4.468-1.531,7.741,7.741,0,0,0-1.828.22Z" transform="translate(297.297 664.777)" fill="#fff"/>
      <path id="Path_98" data-name="Path 98" d="M17.667,17.914a4.277,4.277,0,1,0-4.277-4.277,4.277,4.277,0,0,0,4.277,4.277Zm0-6.631A2.363,2.363,0,1,1,15.3,13.647,2.363,2.363,0,0,1,17.667,11.283Z" transform="translate(279.613 665.061)" fill="#fff"/>
      <path id="Path_99" data-name="Path 99" d="M17.783,19.73a9.271,9.271,0,0,0-6.793,2.622l-.239.268v7.013a1.5,1.5,0,0,0,1.54,1.473H23.265a1.5,1.5,0,0,0,1.54-1.473V22.6l-.239-.268A9.166,9.166,0,0,0,17.783,19.73Zm5.1,9.453H12.644v-5.8a7.731,7.731,0,0,1,5.138-1.741,7.654,7.654,0,0,1,5.1,1.722Z" transform="translate(279.727 664.614)" fill="#fff"/>
    </g>
  </g>
</svg>
