<svg xmlns="http://www.w3.org/2000/svg" width="93" height="93" viewBox="0 0 93 93">
  <g id="Group_14926" data-name="Group 14926" transform="translate(-0.243 0)">
    <circle id="Ellipse_1" data-name="Ellipse 1" cx="46.5" cy="46.5" r="46.5" transform="translate(0.243 0)" fill="#202022"/>
    <g id="Group_14925" data-name="Group 14925" transform="translate(23.776 23.776)">
      <path id="Path_95" data-name="Path 95" d="M14.159,20.69H14.7a11.252,11.252,0,0,1,.158-3.5,3.657,3.657,0,1,1,2.572-5.25,11.515,11.515,0,0,1,2.712-2.292,7.157,7.157,0,1,0-5.985,11.077Z" transform="translate(-2.487 -6.41)" fill="#fff"/>
      <path id="Path_100" data-name="Path 100" d="M12.982,20.69H12.44a11.252,11.252,0,0,0-.158-3.5A3.657,3.657,0,1,0,9.71,11.94,11.515,11.515,0,0,0,7,9.648a7.157,7.157,0,1,1,5.985,11.077Z" transform="translate(21.996 -6.41)" fill="#fff"/>
      <path id="Path_96" data-name="Path 96" d="M19.435,19.794a11.427,11.427,0,0,1-2.24-3.85h-1.1A15.172,15.172,0,0,0,4.84,20.354l-.42.49v12.25h3.5v-10.9a12.25,12.25,0,0,1,8.172-2.8,14.158,14.158,0,0,1,3.342.4Z" transform="translate(-4.42 0.734)" fill="#fff"/>
      <path id="Path_101" data-name="Path 101" d="M4.42,19.794a11.427,11.427,0,0,0,2.24-3.85h1.1a15.172,15.172,0,0,1,11.252,4.41l.42.49v12.25h-3.5v-10.9a12.25,12.25,0,0,0-8.172-2.8,14.158,14.158,0,0,0-3.342.4Z" transform="translate(27.216 0.734)" fill="#fff"/>
      <path id="Path_98" data-name="Path 98" d="M21.212,25a7.822,7.822,0,1,0-7.822-7.822A7.822,7.822,0,0,0,21.212,25Zm0-12.127A4.322,4.322,0,1,1,16.89,17.2,4.322,4.322,0,0,1,21.212,12.877Z" transform="translate(2.307 -4.197)" fill="#fff"/>
      <path id="Path_99" data-name="Path 99" d="M23.612,19.736a16.957,16.957,0,0,0-12.425,4.795l-.437.49V37.848a2.747,2.747,0,0,0,2.817,2.695H33.639a2.747,2.747,0,0,0,2.817-2.695V24.986l-.437-.49A16.765,16.765,0,0,0,23.612,19.736Zm9.327,17.29H14.215v-10.6a14.14,14.14,0,0,1,9.4-3.185,14,14,0,0,1,9.327,3.15Z" transform="translate(0.327 3.574)" fill="#fff"/>
    </g>
  </g>
</svg>
