<svg id="Group_23063" data-name="Group 23063" xmlns="http://www.w3.org/2000/svg" width="32.616" height="17.474" viewBox="0 0 32.616 17.474">
  <path id="Path_8118" data-name="Path 8118" d="M182.759,118.447c-2.029-4.718-3.044-7.077-1.934-8.762S184.5,108,189.638,108h14.075c5.136,0,7.7,0,8.814,1.685s.095,4.044-1.934,8.762l-1.073,2.5c-.945,2.2-1.417,3.3-2.355,3.913s-2.133.617-4.525.617H190.712c-2.392,0-3.588,0-4.525-.617s-1.41-1.716-2.355-3.913Z" transform="translate(-180.368 -108)" fill="#f0f1f4"/>
  <path id="Path_8120" data-name="Path 8120" d="M214.228,117.887l.763-1.538a5.763,5.763,0,0,0-3.021-.744c-.137,0-.261.016-.393.024l-1.273,2.024a2.372,2.372,0,0,1,1.553-.436A4.269,4.269,0,0,1,214.228,117.887Z" transform="translate(-191.622 -110.858)" fill="#191a23"/>
  <path id="Path_8121" data-name="Path 8121" d="M207.876,119.788a.771.771,0,0,1,.026-.184l-1.271,2.021c1.246.939,3.555.82,3.555,1.835,0,.632-.7,1.017-1.81,1.017a4.967,4.967,0,0,1-2.884-.9l-.828,1.551a6.3,6.3,0,0,0,3.508.967c2.434,0,4.032-1.153,4.032-2.952C212.209,120.47,207.864,121.214,207.876,119.788Z" transform="translate(-189.502 -112.362)" fill="#191a23"/>
  <path id="Path_8122" data-name="Path 8122" d="M205.478,114h-2.024l-3.957,6.189L198.085,114H196l2.034,8.679h1.981Z" transform="translate(-186.245 -110.256)" fill="#191a23"/>
</svg>
