<svg xmlns="http://www.w3.org/2000/svg" width="60.475" height="60.475" viewBox="0 0 60.475 60.475">
  <path id="Path_8418" data-name="Path 8418" d="M60.475,29.46a29.742,29.742,0,0,1-44.039,25.8L0,60.475,5.358,44.666A29.159,29.159,0,0,1,1.1,29.458a29.688,29.688,0,0,1,59.375,0ZM30.783,4.7A24.891,24.891,0,0,0,5.825,29.466,24.5,24.5,0,0,0,10.58,43.983l-3.116,9.2,9.588-3.047A24.988,24.988,0,0,0,55.744,29.46,24.889,24.889,0,0,0,30.783,4.7Zm15,31.548c-.185-.3-.67-.479-1.4-.842S40.075,33.3,39.41,33.058s-1.156-.365-1.641.359-1.875,2.349-2.3,2.834-.848.544-1.576.187a20.064,20.064,0,0,1-5.855-3.583,21.724,21.724,0,0,1-4.047-5c-.428-.722-.043-1.112.317-1.471.325-.325.728-.844,1.092-1.268a4.814,4.814,0,0,0,.728-1.2,1.345,1.345,0,0,0-.061-1.268c-.181-.363-1.635-3.912-2.244-5.358s-1.211-1.2-1.637-1.2-.909-.059-1.394-.059a2.664,2.664,0,0,0-1.938.9,8.081,8.081,0,0,0-2.546,6.022c0,3.557,2.605,6.987,2.97,7.468s5.036,8.01,12.433,10.9,7.4,1.925,8.734,1.8,4.307-1.745,4.91-3.429A6,6,0,0,0,45.778,36.245Z" transform="translate(0 0)" fill="#32d951"/>
</svg>
