<svg xmlns="http://www.w3.org/2000/svg" width="51" height="51" viewBox="0 0 51 51">
  <g id="Group_14926" data-name="Group 14926" transform="translate(-160 -552)">
    <circle id="Ellipse_1" data-name="Ellipse 1" cx="25.5" cy="25.5" r="25.5" transform="translate(160 552)" fill="#151515"/>
    <g id="cashback-cash-payment-svgrepo-com" transform="translate(76 420)">
      <g id="Group_14930" data-name="Group 14930" transform="translate(98.833 159.167)">
        <path id="Path_104" data-name="Path 104" d="M225.5,198.467a1.667,1.667,0,0,0-1.666-1.667h-1.668a1.667,1.667,0,0,0-1.666,1.667v6.666a1.667,1.667,0,0,0,1.666,1.667h1.668a1.667,1.667,0,0,0,1.666-1.667Z" transform="translate(-220.5 -196.8)" fill="none" fill-rule="evenodd"/>
      </g>
      <g id="Group_14931" data-name="Group 14931" transform="translate(103.833 159.251)">
        <path id="Path_105" data-name="Path 105" d="M153,164.517a1.667,1.667,0,0,1,1.667-1.667h4.167a1.667,1.667,0,1,1,0,3.333h3.477a1.667,1.667,0,0,0,1.178-.488l2.845-2.845c1.978-1.977,5.178.227,1.869,3.536,0,0-2.729,3-3.873,4.253a1.667,1.667,0,0,1-1.232.544h-8.43A1.667,1.667,0,0,1,153,169.517Z" transform="translate(-153 -162.102)" fill="none" fill-rule="evenodd"/>
      </g>
      <g id="Group_14932" data-name="Group 14932" transform="translate(102.166 145.833)">
        <path id="Path_106" data-name="Path 106" d="M18.974,36.4a1.667,1.667,0,0,0-1.667-1.667H3.974A1.667,1.667,0,0,0,2.308,36.4V43.07a1.667,1.667,0,0,0,1.667,1.667H17.308a1.667,1.667,0,0,0,1.667-1.667Z" transform="translate(-2.308 -34.737)" fill="none" fill-rule="evenodd"/>
      </g>
      <path id="Path_107" data-name="Path 107" d="M104.274,168.846a2.5,2.5,0,0,0,1.226.321h8.43a2.5,2.5,0,0,0,1.848-.817l3.861-4.24c1.639-1.647,1.855-3.125,1.526-4.088-.57-1.665-2.883-2.316-4.588-.612l-2.845,2.845a.833.833,0,0,1-.589.244h-1.087a2.982,2.982,0,0,0,.11-.833,2.448,2.448,0,0,0-2.5-2.5H105.5a2.5,2.5,0,0,0-1.226.321,2.5,2.5,0,0,0-2.108-1.154H100.5a2.5,2.5,0,0,0-2.5,2.5V167.5a2.5,2.5,0,0,0,2.5,2.5h1.667A2.5,2.5,0,0,0,104.274,168.846ZM103,160.833V167.5a.834.834,0,0,1-.833.833H100.5a.834.834,0,0,1-.833-.833v-6.667A.834.834,0,0,1,100.5,160h1.667A.834.834,0,0,1,103,160.833Zm1.667.833v5a.834.834,0,0,0,.833.833h8.43a.835.835,0,0,0,.617-.272l3.886-4.268.014-.013c1-1,1.341-1.8,1.142-2.385-.226-.659-1.158-.647-1.832.028l-2.845,2.845a2.5,2.5,0,0,1-1.768.732h-5.977a.833.833,0,0,1,0-1.667h2.5a.833.833,0,1,0,0-1.667H105.5a.834.834,0,0,0-.833.833Zm15-7.5V147.5a2.5,2.5,0,0,0-2.5-2.5H103.833a2.5,2.5,0,0,0-2.5,2.5v6.667a2.5,2.5,0,0,0,2.5,2.5h13.333a2.5,2.5,0,0,0,2.5-2.5ZM118,147.5v6.667a.834.834,0,0,1-.833.833H103.833a.834.834,0,0,1-.833-.833V147.5a.834.834,0,0,1,.833-.833h13.333a.834.834,0,0,1,.833.833Zm-2.5,6.667h.833a.833.833,0,0,0,0-1.667H115.5a.833.833,0,1,0,0,1.667Zm-5-5.833a2.5,2.5,0,1,0,2.5,2.5A2.5,2.5,0,0,0,110.5,148.333Zm0,1.667a.833.833,0,1,1-.833.833A.834.834,0,0,1,110.5,150Zm-5.833-.833h.833a.833.833,0,1,0,0-1.667h-.833a.833.833,0,0,0,0,1.667Z" fill="#fff" fill-rule="evenodd"/>
    </g>
  </g>
</svg>
